<svg height="888" node-id="1" sillyvg="true" template-height="888" template-width="1667" version="1.1"
     viewBox="0 0 1667 888" width="1667" xmlns="http://www.w3.org/2000/svg" xmlns:xlink="http://www.w3.org/1999/xlink">
    <defs node-id="230">
        <filter height="96.007996" id="filter-1" node-id="5" width="111.034004" x="-4.017" y="-3.96">
            <feOffset color-interpolation-filters="linearRGB" dx="0" dy="2" in="SourceAlpha"
                      result="shadowOffsetOuter1"></feOffset>
            <feColorMatrix color-interpolation-filters="linearRGB" in="shadowOffsetOuter1" result="shadowMatrixOuter1"
                           type="matrix" values="0 0 0 0 0 0 0 0 0 0 0 0 0 0 0 0 0 0 0.2 0"></feColorMatrix>
            <feMerge color-interpolation-filters="linearRGB" result="result3">
                <feMergeNode in="shadowMatrixOuter1"></feMergeNode>
                <feMergeNode in="SourceGraphic"></feMergeNode>
            </feMerge>
        </filter>
        <filter height="86.021996" id="filter-3" node-id="12" width="95.04" x="-2.52" y="4.4890003">
            <feOffset color-interpolation-filters="linearRGB" dx="5" dy="-4" in="SourceAlpha"
                      result="shadowOffsetInner1"></feOffset>
            <feComposite color-interpolation-filters="linearRGB" in="shadowOffsetInner1" in2="SourceAlpha" k1="0"
                         k2="-1" k3="1" k4="0" operator="arithmetic" result="shadowInnerInner1"></feComposite>
            <feColorMatrix color-interpolation-filters="linearRGB" in="shadowInnerInner1" result="result3" type="matrix"
                           values="0 0 0 0 0.9613819 0 0 0 0 0.9663693 0 0 0 0 0.9796762 0 0 0 0.5 0"></feColorMatrix>
        </filter>
        <filter height="138.34424" id="filter-5" node-id="17" width="236.10602" x="84.064" y="389.6565">
            <feOffset color-interpolation-filters="linearRGB" dx="0" dy="2" in="SourceAlpha"
                      result="shadowOffsetOuter1"></feOffset>
            <feColorMatrix color-interpolation-filters="linearRGB" in="shadowOffsetOuter1" result="result2"
                           type="matrix" values="0 0 0 0 0 0 0 0 0 0 0 0 0 0 0 0 0 0 0.2 0"></feColorMatrix>
        </filter>
        <filter height="150.05899" id="filter-7" node-id="21" width="118.97598" x="147.512" y="339.53">
            <feOffset color-interpolation-filters="linearRGB" dx="0" dy="31" in="SourceAlpha"
                      result="shadowOffsetInner1"></feOffset>
            <feComposite color-interpolation-filters="linearRGB" in="shadowOffsetInner1" in2="SourceAlpha" k1="0"
                         k2="-1" k3="1" k4="0" operator="arithmetic" result="shadowInnerInner1"></feComposite>
            <feColorMatrix color-interpolation-filters="linearRGB" in="shadowInnerInner1" result="result3" type="matrix"
                           values="0 0 0 0 0.8352941 0 0 0 0 0.85490197 0 0 0 0 0.9411765 0 0 0 1 0"></feColorMatrix>
        </filter>
        <filter height="287.4288" id="filter-8" node-id="25" width="302.015" x="-4.11705" y="-3.9143999">
            <feOffset color-interpolation-filters="linearRGB" dx="0" dy="2" in="SourceAlpha"
                      result="shadowOffsetOuter1"></feOffset>
            <feColorMatrix color-interpolation-filters="linearRGB" in="shadowOffsetOuter1" result="shadowMatrixOuter1"
                           type="matrix" values="0 0 0 0 0 0 0 0 0 0 0 0 0 0 0 0 0 0 0.2 0"></feColorMatrix>
            <feMerge color-interpolation-filters="linearRGB" result="result3">
                <feMergeNode in="shadowMatrixOuter1"></feMergeNode>
                <feMergeNode in="SourceGraphic"></feMergeNode>
            </feMerge>
        </filter>
        <filter height="219.29686" id="filter-11" node-id="32" width="173.968" x="-3.984" y="-4.0141044">
            <feOffset color-interpolation-filters="linearRGB" dx="0" dy="2" in="SourceAlpha"
                      result="shadowOffsetOuter1"></feOffset>
            <feColorMatrix color-interpolation-filters="linearRGB" in="shadowOffsetOuter1" result="shadowMatrixOuter1"
                           type="matrix" values="0 0 0 0 0 0 0 0 0 0 0 0 0 0 0 0 0 0 0.2 0"></feColorMatrix>
            <feMerge color-interpolation-filters="linearRGB" result="result3">
                <feMergeNode in="shadowMatrixOuter1"></feMergeNode>
                <feMergeNode in="SourceGraphic"></feMergeNode>
            </feMerge>
        </filter>
        <filter height="227.92" id="filter-12" node-id="38" width="195.041" x="-3.927" y="-3.9599998">
            <feOffset color-interpolation-filters="linearRGB" dx="0" dy="2" in="SourceAlpha"
                      result="shadowOffsetOuter1"></feOffset>
            <feColorMatrix color-interpolation-filters="linearRGB" in="shadowOffsetOuter1" result="shadowMatrixOuter1"
                           type="matrix" values="0 0 0 0 0 0 0 0 0 0 0 0 0 0 0 0 0 0 0.2 0"></feColorMatrix>
            <feMerge color-interpolation-filters="linearRGB" result="result3">
                <feMergeNode in="shadowMatrixOuter1"></feMergeNode>
                <feMergeNode in="SourceGraphic"></feMergeNode>
            </feMerge>
        </filter>
        <filter height="88.032" id="filter-14" node-id="45" width="175.07599" x="-0.037999988" y="33.494526">
            <feOffset color-interpolation-filters="linearRGB" dx="0" dy="2" in="SourceAlpha"
                      result="shadowOffsetOuter1"></feOffset>
            <feColorMatrix color-interpolation-filters="linearRGB" in="shadowOffsetOuter1" result="result2"
                           type="matrix" values="0 0 0 0 0 0 0 0 0 0 0 0 0 0 0 0 0 0 0.2 0"></feColorMatrix>
        </filter>
        <mask height="20.033691" id="mask-10" maskUnits="userSpaceOnUse" node-id="132" width="51.495728" x="549.7087"
              y="633.56934">
            <path d="M 550.00 611.00 L 556.00 606.00 L 559.00 606.00 L 568.20 607.70 L 573.90 609.70 L 575.00 613.00 L 585.00 619.00 L 588.00 624.00 L 589.00 628.10 L 595.20 643.00 L 598.00 646.50 L 598.00 651.60 L 597.00 655.20 L 596.10 656.50 L 595.00 657.50 L 592.20 658.40 L 590.10 657.60 L 589.00 656.50 L 589.30 668.70 L 555.00 660.00 L 558.00 651.00 L 550.00 620.10 L 550.00 611.00 Z"
                  fill="#ffffff" fill-rule="evenodd" node-id="315" stroke="none" target-height="62.700012"
                  target-width="48" target-x="550" target-y="606"/>
        </mask>
        <mask height="46.266357" id="mask-16" maskUnits="userSpaceOnUse" node-id="216" width="85.39105" x="592.0593"
              y="630.56506">
            <path d="M 624.30 636.60 L 625.10 634.30 L 629.70 632.20 L 638.10 631.40 L 641.00 633.50 L 641.90 635.30 L 651.60 635.50 L 654.90 636.60 L 661.20 635.80 L 654.40 628.60 L 651.80 625.40 L 653.10 622.70 L 656.90 619.90 L 662.20 623.50 L 668.00 626.80 L 674.90 632.10 L 677.10 637.70 L 676.30 640.80 L 671.70 647.30 L 660.20 654.90 L 656.80 677.80 L 661.00 690.20 L 653.00 696.40 L 624.70 698.30 L 619.50 693.10 L 621.20 687.00 L 624.30 680.10 L 616.20 666.80 L 612.40 671.70 L 613.40 673.90 L 619.90 679.20 L 620.20 682.80 L 618.90 685.80 L 615.60 685.70 L 601.70 679.20 L 596.70 674.20 L 596.00 668.90 L 605.10 651.20 L 607.40 644.60 L 614.50 639.40 Z"
                  fill="#ffffff" fill-rule="evenodd" node-id="322" stroke="none" target-height="78.39996"
                  target-width="81.099976" target-x="596" target-y="619.9"/>
        </mask>
    </defs>
    <g node-id="610">
        <g node-id="611">
            <g node-id="612">
                <path d="M 1222.70 194.10 L 1398.60 293.60 L 1402.80 295.60 L 1407.10 297.10 L 1411.60 298.20 L 1416.10 298.70 L 1420.60 298.70 L 1425.10 298.20 L 1429.50 297.10 L 1433.80 295.60 L 1438.00 293.60 L 1479.50 270.10 L 1483.70 268.10 L 1488.00 266.50 L 1492.40 265.50 L 1496.90 265.00 L 1501.40 265.00 L 1505.90 265.50 L 1510.30 266.50 L 1514.60 268.10 L 1518.80 270.10 L 1603.10 317.90 L 1604.30 319.10 L 1606.00 322.10 L 1606.70 325.40 L 1606.60 327.10 L 1605.40 330.50 L 1604.30 332.00 L 1601.60 334.30 L 1485.50 399.90 L 1481.30 401.90 L 1477.00 403.50 L 1472.60 404.50 L 1468.10 405.00 L 1463.60 405.00 L 1459.10 404.50 L 1454.70 403.50 L 1450.40 401.90 L 1446.20 399.90 L 1420.40 385.30 L 1416.40 383.40 L 1412.30 381.90 L 1408.10 380.90 L 1403.80 380.50 L 1399.50 380.50 L 1395.30 380.90 L 1391.10 381.90 L 1387.00 383.40 L 1383.00 385.30 L 1381.20 386.60 L 1378.50 389.80 L 1377.00 393.60 L 1377.00 397.80 L 1378.40 401.90 L 1379.60 403.70 L 1383.00 406.50 L 1470.20 455.80 L 1472.00 457.10 L 1473.30 458.80 L 1474.10 460.80 L 1474.40 462.90 L 1474.20 465.00 L 1473.30 467.10 L 1472.00 468.90 L 1468.40 471.70 L 1467.10 473.30 L 1466.30 475.30 L 1466.00 477.40 L 1466.20 479.50 L 1467.00 481.60 L 1468.40 483.40 L 1470.20 484.80 L 1651.60 587.30 L 1653.10 588.30 L 1655.30 591.00 L 1656.10 592.50 L 1656.70 595.90 L 1656.10 599.20 L 1655.40 600.90 L 1653.10 603.70 L 1341.70 779.90 L 1337.50 781.90 L 1333.20 783.50 L 1328.80 784.50 L 1324.20 785.00 L 1319.80 785.00 L 1315.20 784.50 L 1310.80 783.50 L 1306.50 781.90 L 1302.30 779.90 L 1193.80 718.50 L 1189.60 716.50 L 1185.30 715.00 L 1180.90 713.90 L 1176.30 713.40 L 1171.90 713.40 L 1167.30 713.90 L 1162.90 715.00 L 1158.60 716.50 L 1144.30 723.90 L 1140.00 725.50 L 1135.60 726.50 L 1131.10 727.00 L 1126.60 727.00 L 1122.10 726.50 L 1117.70 725.50 L 1113.40 723.90 L 1109.20 721.90 L 1055.80 691.70 L 1051.60 689.70 L 1047.30 688.20 L 1042.90 687.10 L 1038.40 686.60 L 1033.90 686.60 L 1029.40 687.10 L 1025.00 688.20 L 1020.70 689.70 L 1016.50 691.70 L 816.10 804.90 L 811.90 806.90 L 807.60 808.50 L 803.20 809.50 L 798.70 810.00 L 794.20 810.00 L 789.70 809.50 L 785.30 808.50 L 781.00 806.90 L 776.80 804.90 L 729.80 778.30 L 725.60 776.30 L 721.30 774.80 L 716.80 773.80 L 712.30 773.20 L 707.80 773.20 L 703.30 773.80 L 698.90 774.80 L 694.60 776.30 L 690.40 778.40 L 516.10 876.90 L 511.90 878.90 L 507.60 880.50 L 503.20 881.50 L 498.70 882.00 L 494.20 882.00 L 489.70 881.50 L 485.30 880.50 L 481.00 878.90 L 476.80 876.90 L 320.40 788.50 L 317.70 786.20 L 316.70 784.80 L 315.50 781.70 L 315.40 778.20 L 315.90 776.60 L 317.70 773.40 L 320.40 771.10 L 530.90 652.10 L 535.10 650.10 L 539.40 648.50 L 543.80 647.50 L 548.30 647.00 L 552.80 647.00 L 557.30 647.50 L 561.70 648.50 L 566.00 650.10 L 582.50 658.80 L 586.80 660.30 L 591.30 661.30 L 595.80 661.80 L 600.30 661.80 L 604.80 661.30 L 609.20 660.30 L 613.50 658.80 L 617.70 656.70 L 704.00 607.80 L 706.20 605.10 L 707.00 603.60 L 707.60 600.30 L 707.10 596.90 L 705.30 593.70 L 702.50 591.40 L 641.70 557.10 L 637.50 555.00 L 633.20 553.50 L 628.80 552.50 L 624.30 552.00 L 619.80 552.00 L 615.30 552.50 L 610.90 553.50 L 606.60 555.00 L 602.40 557.10 L 406.10 667.90 L 401.90 669.90 L 397.60 671.50 L 393.20 672.50 L 388.70 673.00 L 384.20 673.00 L 379.70 672.50 L 375.30 671.50 L 371.00 669.90 L 366.80 667.90 L 171.40 557.60 L 169.90 556.60 L 167.70 553.90 L 166.50 550.80 L 166.30 549.10 L 166.90 545.70 L 167.60 544.00 L 169.90 541.20 L 431.90 393.10 L 436.10 391.10 L 440.40 389.50 L 444.80 388.50 L 449.30 388.00 L 453.80 388.00 L 458.30 388.50 L 462.70 389.50 L 467.00 391.10 L 471.20 393.10 L 584.30 456.90 L 588.50 459.00 L 592.80 460.50 L 597.20 461.50 L 601.70 462.00 L 606.20 462.00 L 610.70 461.50 L 615.10 460.50 L 619.40 459.00 L 623.60 456.90 L 650.60 441.50 L 651.80 440.30 L 653.50 437.30 L 654.10 434.00 L 653.60 430.60 L 651.80 427.50 L 649.10 425.20 L 591.90 392.60 L 589.70 390.00 L 588.90 388.40 L 588.30 385.10 L 588.90 381.70 L 590.60 378.50 L 593.40 376.30 L 742.00 292.10 L 746.20 290.10 L 750.50 288.60 L 755.00 287.50 L 759.50 287.00 L 764.00 287.00 L 768.50 287.50 L 772.90 288.60 L 777.20 290.10 L 781.40 292.10 L 875.90 345.60 L 880.10 347.70 L 884.40 349.20 L 888.90 350.20 L 893.40 350.70 L 897.90 350.70 L 902.40 350.20 L 906.80 349.20 L 911.10 347.70 L 915.30 345.60 L 1183.30 194.10 L 1187.50 192.10 L 1191.80 190.50 L 1196.20 189.50 L 1200.80 189.00 L 1205.20 189.00 L 1209.80 189.50 L 1214.20 190.50 L 1218.50 192.10 L 1222.70 194.10 Z M 1105.20 775.10 L 1133.60 791.20 L 1136.30 793.50 L 1138.10 796.40 L 1138.70 799.80 L 1138.10 803.20 L 1136.40 806.30 L 1133.60 808.60 L 1087.20 834.90 L 1083.00 836.90 L 1078.70 838.50 L 1074.30 839.50 L 1069.80 840.00 L 1065.30 840.00 L 1060.80 839.50 L 1056.30 838.50 L 1052.00 836.90 L 1047.80 834.90 L 1019.40 818.80 L 1016.70 816.50 L 1014.90 813.60 L 1014.30 810.20 L 1014.90 806.80 L 1016.60 803.70 L 1019.40 801.40 L 1065.80 775.10 L 1070.00 773.10 L 1074.30 771.50 L 1078.70 770.50 L 1083.20 770.00 L 1087.70 770.00 L 1092.20 770.50 L 1096.70 771.50 L 1101.00 773.10 L 1105.20 775.10 Z M 256.50 763.10 L 259.40 765.00 L 261.10 766.60 L 262.40 768.50 L 264.00 772.70 L 264.00 777.30 L 263.50 779.50 L 262.50 781.80 L 261.10 783.80 L 259.40 785.40 L 244.80 793.90 L 240.60 796.00 L 236.30 797.50 L 231.90 798.50 L 227.40 799.00 L 222.90 799.00 L 218.40 798.50 L 214.00 797.50 L 209.70 796.00 L 199.50 790.50 L 197.90 789.40 L 195.70 786.80 L 194.50 783.60 L 194.50 780.20 L 195.60 776.90 L 197.90 774.10 L 217.20 763.10 L 221.40 761.00 L 225.70 759.50 L 230.10 758.50 L 234.60 758.00 L 239.10 758.00 L 243.60 758.50 L 248.00 759.50 L 252.30 761.00 L 256.50 763.10 Z M 1021.40 492.60 L 933.50 542.20 L 930.70 544.50 L 929.00 547.40 L 928.40 550.70 L 928.90 554.10 L 930.70 557.30 L 933.50 559.60 L 1043.90 621.90 L 1048.10 624.00 L 1052.40 625.50 L 1056.80 626.50 L 1061.30 627.00 L 1065.80 627.00 L 1070.30 626.50 L 1074.70 625.50 L 1079.00 624.00 L 1083.20 621.90 L 1224.50 542.10 L 1227.20 539.80 L 1228.90 536.90 L 1229.50 533.50 L 1229.00 530.10 L 1227.20 527.00 L 1224.50 524.70 L 1200.10 510.90 L 1195.90 508.90 L 1191.60 507.30 L 1187.20 506.30 L 1182.70 505.80 L 1178.20 505.80 L 1173.70 506.30 L 1169.30 507.30 L 1165.00 508.90 L 1160.80 510.90 L 1146.70 518.90 L 1142.50 520.90 L 1138.20 522.50 L 1133.80 523.50 L 1129.20 524.00 L 1124.80 524.00 L 1120.20 523.50 L 1115.80 522.50 L 1111.50 520.90 L 1107.30 518.90 L 1060.70 492.60 L 1056.50 490.50 L 1052.20 489.00 L 1047.80 488.00 L 1043.30 487.40 L 1038.80 487.40 L 1034.30 488.00 L 1029.90 489.00 L 1025.60 490.50 L 1021.40 492.60 Z M 107.30 477.10 L 142.10 496.90 L 144.30 499.50 L 145.00 501.10 L 145.60 504.40 L 145.10 507.80 L 143.30 511.00 L 140.60 513.30 L 88.00 542.90 L 83.80 545.00 L 79.50 546.50 L 75.10 547.50 L 70.60 548.00 L 66.10 548.00 L 61.60 547.50 L 57.20 546.50 L 52.90 545.00 L 48.70 542.90 L 13.90 523.10 L 11.70 520.50 L 11.00 518.90 L 10.40 515.60 L 10.90 512.20 L 12.70 509.00 L 15.40 506.70 L 68.00 477.10 L 72.20 475.00 L 76.50 473.50 L 80.90 472.50 L 85.40 472.00 L 89.90 472.00 L 94.40 472.50 L 98.80 473.50 L 103.10 475.00 L 107.30 477.10 Z M 777.80 102.10 L 862.10 149.90 L 864.30 152.50 L 865.50 155.70 L 865.60 159.10 L 864.40 162.50 L 863.30 164.00 L 860.60 166.30 L 744.50 231.90 L 740.30 233.90 L 736.00 235.50 L 731.60 236.50 L 727.10 237.00 L 722.60 237.00 L 718.10 236.50 L 713.70 235.50 L 709.40 233.90 L 705.20 231.90 L 620.90 184.10 L 618.70 181.50 L 617.50 178.30 L 617.40 174.90 L 618.60 171.50 L 620.90 168.70 L 622.40 167.70 L 738.50 102.10 L 742.70 100.10 L 747.00 98.50 L 751.40 97.50 L 755.90 97.00 L 760.40 97.00 L 764.90 97.50 L 769.30 98.50 L 773.60 100.10 L 777.80 102.10 Z M 1545.40 193.10 L 1557.60 200.00 L 1559.10 201.10 L 1561.30 203.70 L 1562.50 206.90 L 1562.50 210.30 L 1561.40 213.60 L 1559.10 216.40 L 1532.00 231.90 L 1527.80 233.90 L 1523.50 235.50 L 1519.10 236.50 L 1514.60 237.00 L 1510.10 237.00 L 1505.60 236.50 L 1501.10 235.50 L 1496.80 233.90 L 1492.60 231.90 L 1480.40 225.00 L 1477.70 222.70 L 1476.00 219.80 L 1475.30 216.40 L 1475.50 214.70 L 1476.60 211.40 L 1478.90 208.60 L 1506.00 193.10 L 1510.20 191.10 L 1514.50 189.50 L 1518.90 188.50 L 1523.40 188.00 L 1527.90 188.00 L 1532.40 188.50 L 1536.90 189.50 L 1541.20 191.10 L 1545.40 193.10 Z M 347.30 106.10 L 382.10 125.90 L 384.30 128.50 L 385.00 130.10 L 385.60 133.40 L 385.10 136.80 L 383.30 140.00 L 380.60 142.30 L 328.00 171.90 L 323.80 174.00 L 319.50 175.50 L 315.10 176.50 L 310.60 177.00 L 306.10 177.00 L 301.60 176.50 L 297.20 175.50 L 292.90 174.00 L 288.70 171.90 L 253.90 152.10 L 251.70 149.50 L 251.00 147.90 L 250.40 144.60 L 250.90 141.20 L 252.70 138.00 L 255.40 135.70 L 308.00 106.10 L 312.20 104.00 L 316.50 102.50 L 320.90 101.50 L 325.40 101.00 L 329.90 101.00 L 334.40 101.50 L 338.80 102.50 L 343.10 104.00 L 347.30 106.10 Z"
                      fill="#e8e5df" fill-opacity="0.5" fill-rule="evenodd" group-id="1,2,3" id="形状" node-id="52"
                      stroke="none" target-height="785" target-width="1646.2999" target-x="10.4" target-y="97"/>
            </g>
            <g node-id="613">
                <path d="M 1087.70 624.90 L 1132.80 650.80 L 1137.20 653.60 L 1141.20 656.90 L 1144.70 660.60 L 1147.70 664.70 L 1150.30 669.10 L 1152.30 673.80 L 1153.80 678.70 L 1154.70 683.70 L 1155.00 689.00 L 1154.70 691.70 L 1154.00 694.30 L 1152.90 696.60 L 1151.40 698.70 L 1149.50 700.50 L 1147.40 701.90 L 1134.50 709.00 L 1134.60 705.90 L 1134.30 703.90 L 1133.70 702.60 L 1132.80 701.90 L 1087.70 676.10 L 1084.90 674.20 L 1081.90 671.60 L 1078.80 668.20 L 1075.30 663.80 L 1071.70 658.30 L 1067.70 651.40 L 1063.50 643.00 L 1059.00 632.80 L 1073.80 624.50 L 1075.80 623.70 L 1080.30 623.00 L 1082.90 623.20 L 1085.30 623.90 L 1087.70 624.90 Z"
                      fill="#f8f9fd" fill-rule="evenodd" filter="url(#filter-1)" group-id="1,2,4" id="矩形备份-7"
                      node-id="54" stroke="none" target-height="86" target-width="96" target-x="1059" target-y="623"/>
                <g node-id="621">
                    <g node-id="645">
                        <path d="M 1074.30 632.00 L 1119.70 657.80 L 1124.10 660.70 L 1128.10 664.00 L 1131.60 667.70 L 1134.70 671.80 L 1137.20 676.20 L 1139.30 680.90 L 1140.80 685.80 L 1141.70 690.90 L 1142.00 696.10 L 1141.70 698.80 L 1141.10 701.30 L 1140.00 703.60 L 1138.50 705.70 L 1136.70 707.50 L 1134.60 709.00 L 1132.30 710.10 L 1129.80 710.70 L 1127.10 711.00 L 1124.50 710.80 L 1122.10 710.10 L 1119.70 709.00 L 1074.30 683.20 L 1069.90 680.30 L 1065.90 677.00 L 1062.40 673.30 L 1059.30 669.20 L 1056.80 664.80 L 1054.70 660.10 L 1053.20 655.20 L 1052.30 650.10 L 1052.00 644.90 L 1052.30 642.20 L 1052.90 639.70 L 1054.00 637.40 L 1055.50 635.30 L 1057.30 633.50 L 1059.40 632.00 L 1061.70 630.90 L 1064.20 630.30 L 1066.90 630.00 L 1069.50 630.20 L 1071.90 630.90 L 1074.30 632.00 Z"
                              fill="#d5daf0" fill-rule="evenodd" group-id="1,2,4,12,36" node-id="339" stroke="none"
                              target-height="81" target-width="90" target-x="1052" target-y="630"/>
                    </g>
                    <path d="M 1074.30 632.00 L 1119.70 657.80 L 1124.10 660.70 L 1128.10 664.00 L 1131.60 667.70 L 1134.70 671.80 L 1137.20 676.20 L 1139.30 680.90 L 1140.80 685.80 L 1141.70 690.90 L 1142.00 696.10 L 1141.70 698.80 L 1141.10 701.30 L 1140.00 703.60 L 1138.50 705.70 L 1136.70 707.50 L 1134.60 709.00 L 1132.30 710.10 L 1129.80 710.70 L 1127.10 711.00 L 1124.50 710.80 L 1122.10 710.10 L 1119.70 709.00 L 1074.30 683.20 L 1069.90 680.30 L 1065.90 677.00 L 1062.40 673.30 L 1059.30 669.20 L 1056.80 664.80 L 1054.70 660.10 L 1053.20 655.20 L 1052.30 650.10 L 1052.00 644.90 L 1052.30 642.20 L 1052.90 639.70 L 1054.00 637.40 L 1055.50 635.30 L 1057.30 633.50 L 1059.40 632.00 L 1061.70 630.90 L 1064.20 630.30 L 1066.90 630.00 L 1069.50 630.20 L 1071.90 630.90 L 1074.30 632.00 Z"
                          fill="#000000" fill-rule="evenodd" filter="url(#filter-3)" group-id="1,2,4,12,37"
                          node-id="344" stroke="none" target-height="81" target-width="90" target-x="1052"
                          target-y="630"/>
                </g>
                <path d="M 1119.50 659.80 L 1123.60 662.40 L 1127.20 665.50 L 1130.40 668.90 L 1133.30 672.60 L 1135.60 676.60 L 1137.50 680.90 L 1138.90 685.40 L 1139.70 690.10 L 1140.00 694.90 L 1139.80 697.80 L 1139.10 700.10 L 1138.10 702.20 L 1136.80 704.20 L 1135.10 705.80 L 1133.20 707.10 L 1131.10 708.10 L 1128.80 708.80 L 1126.30 709.00 L 1121.70 708.20 L 1119.50 707.20 L 1115.40 704.60 L 1111.80 701.50 L 1108.60 698.10 L 1105.70 694.40 L 1103.40 690.40 L 1101.50 686.10 L 1100.10 681.60 L 1099.30 676.90 L 1099.00 672.10 L 1099.20 669.20 L 1099.90 666.90 L 1100.90 664.80 L 1103.90 661.20 L 1105.80 659.90 L 1107.90 658.90 L 1110.20 658.20 L 1112.70 658.00 L 1115.10 658.20 L 1117.30 658.80 L 1119.50 659.80 Z"
                      fill="#1AC0F7" fill-rule="evenodd" filter="url(#filter-1)" group-id="1,2,4" id="矩形" node-id="58"
                      stroke="none" target-height="51" target-width="41" target-x="1099" target-y="658"/>
            </g>
            <g node-id="614">
                <g node-id="622">
                    <g node-id="647">
                        <g node-id="664">
                            <path d="M 464.00 466.10 L 466.00 465.60 L 468.00 466.10 L 551.60 507.80 L 552.00 511.00 L 551.90 515.90 L 551.40 518.00 L 550.70 518.80 L 410.90 598.10 L 408.70 599.10 L 406.40 599.70 L 404.00 599.90 L 401.60 599.70 L 399.30 599.10 L 397.10 598.10 L 320.10 554.50 L 318.70 553.00 L 318.10 551.10 L 318.20 543.50 L 318.60 542.30 L 319.00 542.00 L 327.10 541.70 L 335.30 540.90 L 343.70 539.50 L 352.30 537.50 L 361.10 534.90 L 370.10 531.60 L 379.30 527.70 L 388.80 523.00 L 398.60 517.60 L 408.60 511.30 L 419.00 504.20 L 429.70 496.20 L 440.80 487.20 L 452.20 477.20 L 464.00 466.10 Z"
                                  fill="#000000" fill-rule="evenodd" filter="url(#filter-5)" group-id="1,2,5,13,38,55"
                                  node-id="355" stroke="none" target-height="134.30002" target-width="233.9"
                                  target-x="318.1" target-y="465.6"/>
                        </g>
                        <path d="M 464.00 466.10 L 466.00 465.60 L 468.00 466.10 L 551.60 507.80 L 552.00 511.00 L 551.90 515.90 L 551.40 518.00 L 550.70 518.80 L 410.90 598.10 L 408.70 599.10 L 406.40 599.70 L 404.00 599.90 L 401.60 599.70 L 399.30 599.10 L 397.10 598.10 L 320.10 554.50 L 318.70 553.00 L 318.10 551.10 L 318.20 543.50 L 318.60 542.30 L 319.00 542.00 L 327.10 541.70 L 335.30 540.90 L 343.70 539.50 L 352.30 537.50 L 361.10 534.90 L 370.10 531.60 L 379.30 527.70 L 388.80 523.00 L 398.60 517.60 L 408.60 511.30 L 419.00 504.20 L 429.70 496.20 L 440.80 487.20 L 452.20 477.20 L 464.00 466.10 Z"
                              fill="#d5daf0" fill-rule="evenodd" group-id="1,2,5,13,38,56" node-id="360" stroke="none"
                              target-height="134.30002" target-width="233.9" target-x="318.1" target-y="465.6"/>
                    </g>
                    <path d="M 320.10 539.50 L 464.00 458.10 L 466.00 457.60 L 468.00 458.10 L 549.90 504.50 L 551.10 505.60 L 551.70 506.90 L 551.90 508.40 L 551.40 510.00 L 550.70 510.80 L 410.90 590.10 L 408.70 591.10 L 406.40 591.70 L 404.00 591.90 L 401.60 591.70 L 399.30 591.10 L 397.10 590.10 L 320.10 546.50 L 318.90 545.40 L 318.30 544.10 L 318.10 542.60 L 318.60 541.00 L 320.10 539.50 Z"
                          fill="#f8f9fd" fill-rule="evenodd" group-id="1,2,5,13" id="矩形" node-id="64" stroke="none"
                          target-height="134.30002" target-width="233.80002" target-x="318.1" target-y="457.6"/>
                    <path d="M 388.00 475.00 L 476.00 425.00 L 396.00 549.00 L 388.00 544.00 Z" fill="#d5daf0"
                          fill-rule="evenodd" group-id="1,2,5,13" id="矩形" node-id="65" stroke="none"
                          target-height="124" target-width="88" target-x="388" target-y="425"/>
                    <g node-id="648">
                        <g node-id="666">
                            <path d="M 396.00 480.00 L 484.00 430.00 L 484.00 499.00 L 396.00 549.00 Z" fill="#ededf7"
                                  fill-rule="evenodd" group-id="1,2,5,13,39,57" node-id="369" stroke="none"
                                  target-height="119" target-width="88" target-x="396" target-y="430"/>
                        </g>
                        <path d="M 396.00 480.00 L 484.00 430.00 L 484.00 499.00 L 396.00 549.00 Z" fill="#000000"
                              fill-rule="evenodd" filter="url(#filter-7)" group-id="1,2,5,13,39,58" node-id="374"
                              stroke="none" target-height="119" target-width="88" target-x="396" target-y="430"/>
                    </g>
                    <path d="M 248.20 264.40 L 577.10 78.40 L 579.40 77.50 L 581.80 77.10 L 584.20 77.40 L 586.40 78.20 L 598.00 84.00 L 599.90 86.30 L 601.00 89.00 L 591.80 360.10 L 591.20 363.60 L 590.10 366.90 L 588.70 370.10 L 587.00 373.10 L 584.90 375.90 L 582.50 378.40 L 579.80 380.70 L 249.00 574.00 L 238.10 568.60 L 236.70 567.60 L 234.30 564.80 L 233.60 563.20 L 233.00 559.90 L 233.00 290.50 L 233.20 286.90 L 233.80 283.40 L 234.90 280.10 L 236.30 276.90 L 238.00 273.90 L 240.10 271.10 L 242.50 268.60 L 245.20 266.30 L 248.20 264.40 Z"
                          fill="#d5daf0" fill-rule="evenodd" group-id="1,2,5,13" id="矩形" node-id="69" stroke="none"
                          target-height="496.9" target-width="368" target-x="233" target-y="77.1"/>
                    <path d="M 258.20 269.40 L 587.10 83.40 L 590.40 82.30 L 592.10 82.10 L 595.50 82.80 L 598.40 84.50 L 599.70 85.70 L 601.40 88.80 L 602.00 92.10 L 602.00 361.50 L 601.80 365.10 L 601.20 368.60 L 600.10 371.90 L 598.70 375.10 L 597.00 378.10 L 594.90 380.90 L 592.50 383.40 L 589.80 385.70 L 586.80 387.60 L 257.90 573.60 L 254.60 574.70 L 252.90 574.90 L 249.50 574.20 L 246.60 572.50 L 245.30 571.30 L 243.60 568.20 L 243.00 564.90 L 243.00 295.50 L 243.20 291.90 L 243.80 288.40 L 244.90 285.10 L 246.30 281.90 L 248.00 278.90 L 250.10 276.10 L 252.50 273.60 L 255.20 271.30 L 258.20 269.40 Z"
                          fill="#a0a4c3" fill-rule="evenodd" group-id="1,2,5,13" id="矩形" node-id="70" stroke="none"
                          target-height="492.80002" target-width="359" target-x="243" target-y="82.1"/>
                    <path d="M 243.00 538.00 L 602.00 335.00 L 602.00 361.50 L 601.80 365.10 L 601.20 368.60 L 600.10 371.90 L 598.70 375.10 L 597.00 378.10 L 594.90 380.90 L 592.50 383.40 L 589.80 385.70 L 586.80 387.60 L 257.90 573.60 L 254.60 574.70 L 252.90 574.90 L 249.50 574.20 L 246.60 572.50 L 245.30 571.30 L 243.60 568.20 L 243.00 564.90 L 243.00 538.00 Z"
                          fill="#f8f9fd" fill-rule="evenodd" group-id="1,2,5,13" id="矩形" node-id="71" stroke="none"
                          target-height="239.90002" target-width="359" target-x="243" target-y="335"/>
                </g>
                <g node-id="623">
                    <path d="M 335.00 437.90 L 335.00 452.90 L 285.00 481.20 L 285.00 466.20 Z" fill="#d5daf0"
                          fill-rule="evenodd" group-id="1,2,5,14" id="路径" node-id="73" stroke="none"
                          target-height="43.30002" target-width="50" target-x="285" target-y="437.9"/>
                    <path d="M 418.00 365.80 L 418.00 381.00 L 285.00 456.20 L 285.00 441.20 L 369.00 393.60 Z"
                          fill="#d5daf0" fill-rule="evenodd" group-id="1,2,5,14" id="路径" node-id="74" stroke="none"
                          target-height="90.400024" target-width="133" target-x="285" target-y="365.8"/>
                    <path d="M 418.00 339.80 L 418.00 355.00 L 285.00 430.20 L 285.00 415.20 L 369.00 367.60 Z"
                          fill="#03c9c9" fill-rule="evenodd" group-id="1,2,5,14" id="路径" node-id="75" stroke="none"
                          target-height="90.400024" target-width="133" target-x="285" target-y="339.8"/>
                    <path d="M 335.00 284.90 L 335.00 350.90 L 285.00 379.20 L 285.00 313.20 Z" fill="#03c9c9"
                          fill-rule="evenodd" group-id="1,2,5,14" id="路径" node-id="76" stroke="none"
                          target-height="94.30002" target-width="50" target-x="285" target-y="284.9"/>
                    <path d="M 465.00 211.20 L 465.00 354.20 L 428.00 375.20 L 428.00 232.20 Z" fill="#d5daf0"
                          fill-rule="evenodd" group-id="1,2,5,14" id="路径" node-id="77" stroke="none"
                          target-height="164.00002" target-width="37" target-x="428" target-y="211.2"/>
                    <path d="M 524.00 330.80 L 524.00 345.80 L 475.00 373.50 L 475.00 358.50 Z" fill="#d5daf0"
                          fill-rule="evenodd" group-id="1,2,5,14" id="路径" node-id="78" stroke="none"
                          target-height="42.700012" target-width="49" target-x="475" target-y="330.8"/>
                    <path d="M 524.00 305.80 L 524.00 320.80 L 475.00 348.50 L 475.00 333.50 Z" fill="#03c9c9"
                          fill-rule="evenodd" group-id="1,2,5,14" id="路径" node-id="79" stroke="none"
                          target-height="42.700012" target-width="49" target-x="475" target-y="305.8"/>
                    <path d="M 359.00 322.30 L 359.00 337.30 L 345.00 345.20 L 345.00 330.20 Z" fill="#d5daf0"
                          fill-rule="evenodd" group-id="1,2,5,14" id="路径" node-id="80" stroke="none"
                          target-height="22.900024" target-width="14" target-x="345" target-y="322.3"/>
                    <path d="M 418.00 288.80 L 418.00 303.80 L 369.00 331.60 L 369.00 316.60 Z" fill="#d5daf0"
                          fill-rule="evenodd" group-id="1,2,5,14" id="路径" node-id="81" stroke="none"
                          target-height="42.80002" target-width="49" target-x="369" target-y="288.8"/>
                    <path d="M 524.00 279.80 L 524.00 294.80 L 475.00 322.50 L 475.00 307.50 Z" fill="#d5daf0"
                          fill-rule="evenodd" group-id="1,2,5,14" id="路径" node-id="82" stroke="none"
                          target-height="42.700012" target-width="49" target-x="475" target-y="279.8"/>
                    <path d="M 359.00 297.30 L 359.00 312.30 L 345.00 320.20 L 345.00 305.20 Z" fill="#d5daf0"
                          fill-rule="evenodd" group-id="1,2,5,14" id="路径" node-id="83" stroke="none"
                          target-height="22.900024" target-width="14" target-x="345" target-y="297.3"/>
                    <path d="M 566.00 282.00 L 566.00 297.00 L 534.00 315.10 L 534.00 300.10 Z" fill="#d5daf0"
                          fill-rule="evenodd" group-id="1,2,5,14" id="路径" node-id="84" stroke="none"
                          target-height="33.100006" target-width="32" target-x="534" target-y="282"/>
                    <path d="M 418.00 263.80 L 418.00 278.80 L 369.00 306.60 L 369.00 291.60 Z" fill="#d5daf0"
                          fill-rule="evenodd" group-id="1,2,5,14" id="路径" node-id="85" stroke="none"
                          target-height="42.80002" target-width="49" target-x="369" target-y="263.8"/>
                    <path d="M 566.00 230.00 L 566.00 245.00 L 565.00 245.80 L 475.00 296.50 L 475.00 281.50 L 534.00 248.10 Z"
                          fill="#d5daf0" fill-rule="evenodd" group-id="1,2,5,14" id="路径" node-id="86" stroke="none"
                          target-height="66.5" target-width="91" target-x="475" target-y="230"/>
                    <path d="M 359.00 271.30 L 359.00 286.30 L 345.00 294.20 L 345.00 279.20 Z" fill="#d5daf0"
                          fill-rule="evenodd" group-id="1,2,5,14" id="路径" node-id="87" stroke="none"
                          target-height="22.900024" target-width="14" target-x="345" target-y="271.3"/>
                    <path d="M 566.00 256.00 L 566.00 271.00 L 534.00 289.10 L 534.00 274.10 Z" fill="#03c9c9"
                          fill-rule="evenodd" group-id="1,2,5,14" id="路径" node-id="88" stroke="none"
                          target-height="33.100006" target-width="32" target-x="534" target-y="256"/>
                    <path d="M 418.00 237.80 L 418.00 252.80 L 369.00 280.60 L 369.00 265.60 Z" fill="#d5daf0"
                          fill-rule="evenodd" group-id="1,2,5,14" id="路径" node-id="89" stroke="none"
                          target-height="42.800003" target-width="49" target-x="369" target-y="237.8"/>
                    <path d="M 566.00 205.00 L 566.00 220.00 L 565.00 220.80 L 475.00 271.50 L 475.00 256.50 L 534.00 223.10 Z"
                          fill="#d5daf0" fill-rule="evenodd" group-id="1,2,5,14" id="路径" node-id="90" stroke="none"
                          target-height="66.5" target-width="91" target-x="475" target-y="205"/>
                    <path d="M 566.00 180.00 L 566.00 195.00 L 565.00 195.80 L 475.00 246.50 L 475.00 231.50 L 534.00 198.10 Z"
                          fill="#03c9c9" fill-rule="evenodd" group-id="1,2,5,14" id="路径" node-id="91" stroke="none"
                          target-height="66.5" target-width="91" target-x="475" target-y="180"/>
                    <path d="M 566.00 154.00 L 566.00 169.00 L 565.00 169.80 L 475.00 220.50 L 475.00 205.50 L 534.00 172.10 Z"
                          fill="#d5daf0" fill-rule="evenodd" group-id="1,2,5,14" id="路径" node-id="92" stroke="none"
                          target-height="66.5" target-width="91" target-x="475" target-y="154"/>
                </g>
            </g>
            <g node-id="615">
                <g node-id="624">
                    <path d="M 1341.00 493.80 L 1380.60 471.00 L 1380.60 499.80 L 1341.00 522.60 Z" fill="#777b8e"
                          fill-rule="evenodd" filter="url(#filter-8)" group-id="1,2,6,15" id="矩形备份-23" node-id="95"
                          stroke="none" target-height="51.599976" target-width="39.599976" target-x="1341"
                          target-y="471"/>
                    <path d="M 1390.20 411.00 L 1384.20 435.00 L 1354.90 545.30 L 1293.00 581.40 L 1290.60 580.20 L 1314.60 522.60 Z"
                          fill="#03c9c9" fill-rule="evenodd" filter="url(#filter-8)" group-id="1,2,6,15" id="矩形"
                          node-id="96" stroke="none" target-height="170.40002" target-width="99.599976"
                          target-x="1290.6" target-y="411"/>
                    <path d="M 1361.40 507.00 L 1364.60 508.80 L 1354.90 545.30 L 1322.60 564.10 L 1302.10 552.50 L 1308.60 537.10 Z"
                          fill="#777b8e" fill-rule="evenodd" filter="url(#filter-8)" group-id="1,2,6,15" id="路径"
                          node-id="97" stroke="none" target-height="57.099976" target-width="62.5" target-x="1302.1"
                          target-y="507"/>
                    <g node-id="649">
                        <path d="M 1362.60 491.40 L 1338.40 556.50 L 1316.50 569.10 L 1346.80 502.80 Z" fill="#5f6377"
                              fill-rule="evenodd" filter="url(#filter-8)" group-id="1,2,6,15,40" id="矩形备份-24"
                              node-id="98" stroke="none" target-height="77.69998" target-width="46.099976"
                              target-x="1316.5" target-y="491.4"/>
                    </g>
                    <path d="M 1390.20 411.00 L 1379.40 435.00 L 1292.50 581.30 L 1252.20 558.60 Z" fill="#1AC0F7"
                          fill-rule="evenodd" filter="url(#filter-8)" group-id="1,2,6,15" id="矩形" node-id="99"
                          stroke="none" target-height="170.29999" target-width="138" target-x="1252.2" target-y="411"/>
                    <path d="M 1295.60 512.20 L 1323.90 528.40 L 1295.50 576.20 L 1289.50 579.60 L 1252.20 558.60 L 1295.60 512.20 Z"
                          fill="#959ab2" fill-rule="evenodd" filter="url(#filter-8)" group-id="1,2,6,15" id="形状结合"
                          node-id="100" stroke="none" target-height="67.39996" target-width="71.70007" target-x="1252.2"
                          target-y="512.2"/>
                    <path d="M 1380.60 471.00 L 1513.80 546.60 L 1513.80 575.40 L 1380.60 499.80 Z" fill="#959ab2"
                          fill-rule="evenodd" filter="url(#filter-8)" group-id="1,2,6,15" id="矩形备份-17" node-id="101"
                          stroke="none" target-height="104.400024" target-width="133.20007" target-x="1380.6"
                          target-y="471"/>
                    <path d="M 1380.60 499.80 L 1513.80 575.40 L 1392.60 645.00 L 1259.40 569.40 L 1298.90 546.70 L 1309.20 552.60 L 1360.80 523.20 L 1364.60 509.00 L 1380.60 499.80 Z"
                          fill="#b0b6d1" fill-rule="evenodd" filter="url(#filter-8)" group-id="1,2,6,15" id="形状结合"
                          node-id="102" stroke="none" target-height="145.20001" target-width="254.40002"
                          target-x="1259.4" target-y="499.8"/>
                    <path d="M 1259.40 540.60 L 1299.00 517.80 L 1299.00 546.60 L 1259.40 569.40 Z" fill="#777b8e"
                          fill-rule="evenodd" filter="url(#filter-8)" group-id="1,2,6,15" id="矩形备份-16" node-id="103"
                          stroke="none" target-height="51.600037" target-width="39.599976" target-x="1259.4"
                          target-y="517.8"/>
                </g>
                <g node-id="625">
                    <path d="M 1386.40 430.40 L 1530.60 611.40 L 1521.10 610.30 L 1385.20 435.20 L 1386.60 525.00 Z"
                          fill="#d5daf0" fill-rule="evenodd" filter="url(#filter-8)" group-id="1,2,6,16" id="矩形"
                          node-id="105" stroke="none" target-height="181.00003" target-width="145.40002"
                          target-x="1385.2" target-y="430.4"/>
                    <path d="M 1386.40 435.20 L 1530.60 611.40 L 1533.10 604.30 L 1387.80 437.40 L 1386.40 430.40 Z"
                          fill="#f8f9fd" fill-rule="evenodd" filter="url(#filter-8)" group-id="1,2,6,16" id="矩形"
                          node-id="106" stroke="none" target-height="181.00003" target-width="146.69995"
                          target-x="1386.4" target-y="430.4"/>
                    <path d="M 1380.60 438.60 L 1384.10 528.00 L 1421.40 508.20 Z" fill="#d5daf0" fill-rule="evenodd"
                          filter="url(#filter-8)" group-id="1,2,6,16" id="矩形备份-25" node-id="107" stroke="none"
                          target-height="89.399994" target-width="40.80005" target-x="1380.6" target-y="438.6"/>
                    <path d="M 1380.60 438.60 L 1384.10 528.00 L 1331.20 498.00 Z" fill="#f8f9fd" fill-rule="evenodd"
                          filter="url(#filter-8)" group-id="1,2,6,16" id="矩形备份-25" node-id="108" stroke="none"
                          target-height="89.399994" target-width="52.900024" target-x="1331.2" target-y="438.6"/>
                    <path d="M 1381.80 439.80 L 1391.40 690.60 L 1393.90 683.50 L 1383.20 442.00 L 1381.80 435.00 L 1379.40 439.80 L 1241.30 610.10 L 1249.80 610.20 Z"
                          fill="#f8f9fd" fill-rule="evenodd" filter="url(#filter-8)" group-id="1,2,6,16" id="矩形"
                          node-id="109" stroke="none" target-height="255.59998" target-width="152.59998"
                          target-x="1241.3" target-y="435"/>
                    <path d="M 1381.80 435.00 L 1391.40 690.60 L 1381.90 689.50 L 1379.40 439.80 L 1241.30 610.10 L 1239.00 604.20 Z"
                          fill="#d5daf0" fill-rule="evenodd" filter="url(#filter-8)" group-id="1,2,6,16" id="矩形"
                          node-id="110" stroke="none" target-height="255.59998" target-width="152.40002" target-x="1239"
                          target-y="435"/>
                </g>
                <g node-id="626">
                    <path d="M 1474.20 569.40 L 1513.80 546.60 L 1513.80 575.40 L 1474.20 598.20 Z" fill="#777b8e"
                          fill-rule="evenodd" filter="url(#filter-8)" group-id="1,2,6,17" id="矩形备份-18" node-id="112"
                          stroke="none" target-height="51.600037" target-width="39.600098" target-x="1474.2"
                          target-y="546.6"/>
                    <path d="M 1390.20 411.00 L 1529.40 643.80 L 1467.00 679.80 L 1384.20 435.00 Z" fill="#03c9c9"
                          fill-rule="evenodd" filter="url(#filter-8)" group-id="1,2,6,17" id="矩形" node-id="113"
                          stroke="none" target-height="268.8" target-width="145.20007" target-x="1384.2"
                          target-y="411"/>
                    <path d="M 1487.00 572.90 L 1529.40 643.80 L 1467.00 679.80 L 1439.90 599.70 L 1487.00 572.90 Z"
                          fill="#777b8e" fill-rule="evenodd" filter="url(#filter-8)" group-id="1,2,6,17" id="形状结合"
                          node-id="114" stroke="none" target-height="106.89996" target-width="89.5" target-x="1439.9"
                          target-y="572.9"/>
                    <path d="M 1390.20 411.00 L 1467.00 679.80 L 1426.70 657.10 L 1379.40 435.00 Z" fill="#1AC0F7"
                          fill-rule="evenodd" filter="url(#filter-8)" group-id="1,2,6,17" id="矩形" node-id="115"
                          stroke="none" target-height="268.8" target-width="87.599976" target-x="1379.4"
                          target-y="411"/>
                    <path d="M 1409.90 578.30 L 1443.40 597.30 L 1467.00 679.80 L 1426.70 657.10 L 1409.90 578.30 Z"
                          fill="#959ab2" fill-rule="evenodd" filter="url(#filter-8)" group-id="1,2,6,17" id="形状结合"
                          node-id="116" stroke="none" target-height="101.5" target-width="57.099976" target-x="1409.9"
                          target-y="578.3"/>
                    <g node-id="650">
                        <path d="M 1479.30 586.00 L 1509.70 655.70 L 1487.90 668.30 L 1457.40 598.60 Z" fill="#959ab2"
                              fill-rule="evenodd" filter="url(#filter-8)" group-id="1,2,6,17,41" id="矩形" node-id="117"
                              stroke="none" target-height="82.29999" target-width="52.299927" target-x="1457.4"
                              target-y="586"/>
                    </g>
                    <g node-id="651">
                        <path d="M 1479.30 586.00 L 1509.70 655.70 L 1461.80 608.60 L 1457.40 598.60 Z" fill="#5f6377"
                              fill-rule="evenodd" filter="url(#filter-8)" group-id="1,2,6,17,42" id="矩形" node-id="118"
                              stroke="none" target-height="69.70001" target-width="52.299927" target-x="1457.4"
                              target-y="586"/>
                    </g>
                    <path d="M 1392.60 616.20 L 1432.20 593.40 L 1432.20 622.20 L 1392.60 645.00 Z" fill="#777b8e"
                          fill-rule="evenodd" filter="url(#filter-8)" group-id="1,2,6,17" id="矩形" node-id="119"
                          stroke="none" target-height="51.599976" target-width="39.599976" target-x="1392.6"
                          target-y="593.4"/>
                    <path d="M 1259.40 540.60 L 1392.60 616.20 L 1392.60 645.00 L 1259.40 569.40 Z" fill="#959ab2"
                          fill-rule="evenodd" filter="url(#filter-8)" group-id="1,2,6,17" id="矩形" node-id="120"
                          stroke="none" target-height="104.400024" target-width="133.19995" target-x="1259.4"
                          target-y="540.6"/>
                </g>
                <path d="M 1293.70 520.90 L 1298.60 523.60 L 1269.10 540.60 L 1392.60 610.70 L 1427.00 590.90 L 1431.90 593.70 L 1392.60 616.20 L 1259.40 540.60 L 1293.70 520.90 Z M 1452.50 511.80 L 1513.80 546.60 L 1482.20 564.70 L 1479.70 560.60 L 1504.10 546.60 L 1462.30 522.90 L 1452.50 511.80 Z"
                      fill="#cbd2f3" fill-rule="nonzero" filter="url(#filter-8)" group-id="1,2,6" id="形状结合"
                      node-id="121" stroke="none" target-height="104.400024" target-width="254.40002" target-x="1259.4"
                      target-y="511.8"/>
            </g>
            <g node-id="616">
                <g node-id="627">
                    <path d="M 600.50 623.80 L 615.50 627.80 L 594.20 649.50 L 579.20 645.50 Z" fill="#ced4d6"
                          fill-rule="evenodd" group-id="1,2,7,18" id="矩形备份-8" node-id="123" stroke="none"
                          target-height="25.700012" target-width="36.299988" target-x="579.2" target-y="623.8"/>
                </g>
                <g node-id="628">
                    <path d="M 554.90 657.50 L 552.80 665.20 L 552.40 668.00 L 554.90 681.40 L 556.00 698.00 L 554.50 706.90 L 556.00 720.40 L 567.30 720.40 L 568.40 711.10 L 570.90 705.60 L 572.10 716.00 L 571.10 723.00 L 571.90 730.80 L 582.30 732.40 L 586.10 722.40 L 586.10 713.00 L 589.60 695.40 L 590.40 678.80 L 590.40 668.70 Z"
                          fill="#473f5c" fill-rule="evenodd" group-id="1,2,7,19" id="路径-19" node-id="125"
                          stroke="none" target-height="74.900024" target-width="38" target-x="552.4" target-y="657.5"/>
                    <path d="M 585.30 726.60 L 584.00 749.30 L 587.00 752.00 L 594.50 754.70 L 595.00 758.00 L 590.00 760.00 L 585.00 760.00 L 579.00 761.00 L 576.50 761.00 L 574.20 760.20 L 573.50 759.00 L 573.60 755.00 L 574.30 749.70 L 570.70 734.20 L 571.00 725.00 L 573.00 728.00 L 579.00 730.00 L 583.00 729.00 Z"
                          fill="#231e31" fill-rule="evenodd" group-id="1,2,7,19" id="路径-7备份" node-id="126"
                          stroke="none" target-height="36" target-width="24.299988" target-x="570.7" target-y="725"/>
                    <g node-id="652">
                        <path d="M 596.80 760.30 L 596.00 761.60 L 594.50 762.60 L 592.30 763.30 L 587.10 763.70 L 580.20 762.60 L 572.60 760.20 L 565.50 756.70 L 559.80 752.70 L 556.30 748.80 L 555.20 746.70 L 554.90 745.00 L 555.10 743.40 L 556.00 742.10 L 557.50 741.10 L 559.70 740.40 L 564.90 740.00 L 571.80 741.10 L 579.40 743.50 L 586.50 747.00 L 592.20 751.00 L 595.70 754.90 L 596.80 757.00 L 597.10 758.70 L 596.80 760.30 Z"
                              fill="#000000" fill-opacity="0.100438" fill-rule="evenodd" group-id="1,2,7,19,43"
                              id="椭圆形" node-id="127" stroke="none" target-height="23.700012" target-width="42.19995"
                              target-x="554.9" target-y="740"/>
                    </g>
                    <path d="M 568.60 714.00 L 567.20 736.70 L 568.50 739.50 L 571.00 741.10 L 571.50 744.40 L 570.20 745.50 L 567.00 746.50 L 564.20 748.30 L 562.00 748.50 L 557.70 747.20 L 557.00 746.00 L 556.90 742.40 L 557.60 737.00 L 554.00 721.60 L 555.00 712.00 L 556.60 714.70 L 564.00 717.00 L 567.00 716.00 Z"
                          fill="#231e31" fill-rule="evenodd" group-id="1,2,7,19" id="路径-7备份-3" node-id="128"
                          stroke="none" target-height="36.5" target-width="17.5" target-x="554" target-y="712"/>
                    <path d="M 571.00 706.00 L 571.00 702.00 L 569.00 688.00 L 564.60 681.20 L 563.00 675.00 L 563.30 670.50"
                          fill="none" group-id="1,2,7,19" id="路径-20" node-id="129" stroke="#736b88"
                          stroke-linecap="butt" stroke-width="0.54432" target-height="35.5" target-width="8"
                          target-x="563" target-y="670.5"/>
                </g>
                <g node-id="629">
                    <g node-id="653">
                        <g node-id="668">
                            <path d="M 550.00 611.00 L 556.00 606.00 L 559.00 606.00 L 568.20 607.70 L 573.90 609.70 L 575.00 613.00 L 585.00 619.00 L 588.00 624.00 L 589.00 628.10 L 595.20 643.00 L 598.00 646.50 L 598.00 651.60 L 597.00 655.20 L 596.10 656.50 L 595.00 657.50 L 592.20 658.40 L 590.10 657.60 L 589.00 656.50 L 589.30 668.70 L 555.00 660.00 L 558.00 651.00 L 550.00 620.10 L 550.00 611.00 Z"
                                  fill="#ff935f" fill-rule="evenodd" group-id="1,2,7,20,44,59" node-id="465"
                                  stroke="none" target-height="62.700012" target-width="48" target-x="550"
                                  target-y="606"/>
                        </g>
                        <path d="M 596.90 639.00 L 591.50 645.90 L 586.50 647.80 L 581.30 651.90 L 575.00 651.00 L 567.70 649.20 L 558.00 645.00 L 554.70 641.80 L 554.00 637.00 L 558.10 641.10 L 567.00 645.00 L 575.40 646.80 L 581.30 647.80 L 585.40 644.50 L 589.90 643.10 L 595.60 635.20 Z"
                              fill="#e5ffa5" fill-rule="evenodd" group-id="1,2,7,20,44,60" id="路径-21" node-id="135"
                              stroke="none" target-height="16.700012" target-width="42.900024" target-x="554"
                              target-y="635.2"/>
                    </g>
                    <path d="M 595.20 643.00 L 598.00 646.50 L 598.00 651.60 L 597.00 655.20 L 596.10 656.50 L 595.00 657.50 L 592.20 658.40 L 590.10 657.60 L 589.00 656.50 L 590.30 668.70 L 587.00 672.00 L 579.00 672.00 L 570.00 670.00 L 556.00 662.00 L 554.20 660.50 L 557.00 651.00 L 555.00 639.00 L 558.00 647.00 L 572.00 652.00 L 579.60 653.20 L 576.10 634.30 L 580.90 629.70 L 587.90 648.20 L 592.40 646.50 L 595.20 643.00 Z"
                          fill="#473f5c" fill-rule="evenodd" group-id="1,2,7,20" id="路径-18" node-id="136"
                          stroke="none" target-height="42.299988" target-width="43.799988" target-x="554.2"
                          target-y="629.7"/>
                    <path d="M 590.30 668.70 L 585.70 672.00 L 572.00 671.00 L 556.00 662.00 L 554.20 660.50"
                          fill="none" group-id="1,2,7,20" id="路径" node-id="137" stroke="#736b88" stroke-linecap="butt"
                          stroke-width="0.54432" target-height="11.5" target-width="36.099976" target-x="554.2"
                          target-y="660.5"/>
                </g>
                <g node-id="630">
                    <path d="M 578.20 590.70 L 578.80 598.00 L 577.80 603.50 L 576.00 607.00 L 574.60 607.80 L 572.70 608.20 L 572.70 612.00 L 559.10 610.70 L 560.00 602.50 L 559.80 601.20 L 558.20 596.20 L 557.50 591.90 L 558.30 588.70 L 560.50 585.70 L 563.60 583.60 L 565.40 583.00 L 567.30 582.70 L 569.30 582.90 L 572.10 583.70 L 574.20 584.70 L 575.60 585.90 L 577.70 588.90 L 578.20 590.70 Z"
                          fill="#ffc59d" fill-rule="evenodd" group-id="1,2,7,21" id="路径-13" node-id="139"
                          stroke="none" target-height="29.299988" target-width="21.299988" target-x="557.5"
                          target-y="582.7"/>
                    <path d="M 569.30 599.40 L 569.90 601.70 L 570.90 603.50 L 572.10 605.00 L 573.50 606.10 L 576.00 607.00 L 574.60 607.80 L 572.70 608.20 L 572.70 612.00 L 559.10 610.70 L 560.00 602.50 L 559.80 601.20 L 558.20 596.20 L 557.50 591.90 L 558.30 588.70 L 559.30 587.10 L 561.90 584.50 L 565.40 583.00 L 567.30 582.70 L 569.30 582.90 L 570.30 583.30 L 571.50 584.70 L 571.70 586.20 L 571.60 588.20 L 569.50 596.40 L 569.30 599.40 Z"
                          fill="#f1a774" fill-rule="evenodd" group-id="1,2,7,21" id="路径-13" node-id="140"
                          stroke="none" target-height="29.299988" target-width="18.5" target-x="557.5"
                          target-y="582.7"/>
                    <path d="M 553.50 612.00 L 557.50 607.70 L 568.20 607.70 L 573.90 609.70 L 577.00 613.80 L 572.60 612.60 L 562.20 611.50 Z"
                          fill="#473f5c" fill-rule="evenodd" group-id="1,2,7,21" id="路径-18" node-id="141"
                          stroke="none" target-height="6.0999756" target-width="23.5" target-x="553.5"
                          target-y="607.7"/>
                    <path d="M 578.80 591.60 L 578.90 593.00 L 578.50 594.80 L 577.00 598.00 L 575.60 599.40 L 574.60 597.70 L 573.10 598.80 L 570.30 602.90 L 569.00 606.00 L 565.90 617.90 L 564.60 631.80 L 562.80 637.90 L 561.60 640.60 L 560.30 642.60 L 558.80 644.20 L 557.50 644.90 L 556.20 645.00 L 555.10 644.80 L 554.10 644.20 L 552.20 641.50 L 551.30 639.30 L 549.90 633.30 L 549.50 627.20 L 549.70 624.00 L 551.20 617.20 L 552.60 613.90 L 557.30 606.30 L 558.40 604.10 L 558.80 602.00 L 558.60 600.60 L 557.30 597.30 L 556.70 594.00 L 557.50 588.20 L 558.30 586.00 L 559.30 584.40 L 560.60 583.40 L 562.20 582.70 L 564.30 582.40 L 566.80 582.70 L 570.10 583.70 L 574.20 585.50 L 576.60 588.00 L 578.10 590.00 L 578.80 591.60 Z"
                          fill="#53443f" fill-rule="evenodd" group-id="1,2,7,21" id="路径-17" node-id="142"
                          stroke="none" target-height="62.599976" target-width="29.400024" target-x="549.5"
                          target-y="582.4"/>
                    <path d="M 567.10 577.90 L 570.10 578.30 L 572.70 579.10 L 575.00 580.60 L 576.90 582.50 L 578.30 584.90 L 579.20 587.70 L 582.70 588.40 L 584.40 589.30 L 584.40 590.30 L 579.60 594.00 L 575.70 596.60 L 572.50 598.20 L 570.00 599.00 L 564.60 600.10 L 560.60 600.50 L 557.70 600.40 L 555.60 599.90 L 554.20 599.30 L 553.50 598.40 L 553.50 596.20 L 554.20 595.00 L 554.20 589.40 L 554.80 587.10 L 557.10 582.90 L 560.50 579.80 L 562.50 578.80 L 564.70 578.20 L 567.10 577.90 Z"
                          fill="#ff7e27" fill-rule="evenodd" group-id="1,2,7,21" id="形状结合" node-id="143"
                          stroke="none" target-height="22.599976" target-width="30.900024" target-x="553.5"
                          target-y="577.9"/>
                </g>
            </g>
            <g node-id="617">
                <g node-id="631">
                    <path d="M 756.00 531.70 L 782.00 546.50 L 782.00 665.30 L 756.00 650.50 Z" fill="#ededf7"
                          fill-rule="evenodd" filter="url(#filter-11)" group-id="1,2,8,22" id="矩形" node-id="146"
                          stroke="none" target-height="133.59998" target-width="26" target-x="756" target-y="531.7"/>
                    <g node-id="654">
                        <path d="M 808.00 531.70 L 782.00 546.50 L 782.00 665.30 L 808.00 650.50 Z" fill="#d5daf0"
                              fill-rule="evenodd" filter="url(#filter-11)" group-id="1,2,8,22,45" id="矩形备份-30"
                              node-id="147" stroke="none" target-height="133.59998" target-width="26" target-x="782"
                              target-y="531.7"/>
                    </g>
                    <path d="M 756.00 531.70 L 782.00 517.00 L 808.00 531.70 L 782.00 546.50 Z" fill="#f8f9fd"
                          fill-rule="evenodd" filter="url(#filter-11)" group-id="1,2,8,22" id="矩形" node-id="148"
                          stroke="none" target-height="29.5" target-width="52" target-x="756" target-y="517"/>
                </g>
                <g node-id="632">
                    <path d="M 718.00 592.70 L 744.00 607.50 L 744.00 686.30 L 718.00 671.50 Z" fill="#03c9c9"
                          fill-rule="evenodd" filter="url(#filter-11)" group-id="1,2,8,23" id="矩形" node-id="150"
                          stroke="none" target-height="93.599976" target-width="26" target-x="718" target-y="592.7"/>
                    <g node-id="655">
                        <path d="M 770.00 592.70 L 744.00 607.50 L 744.00 686.30 L 770.00 671.50 Z" fill="#03c9c9"
                              fill-rule="evenodd" filter="url(#filter-11)" group-id="1,2,8,23,46" id="矩形备份-30"
                              node-id="151" stroke="none" target-height="93.599976" target-width="26" target-x="744"
                              target-y="592.7"/>
                    </g>
                    <path d="M 718.00 592.70 L 744.00 578.00 L 770.00 592.70 L 744.00 607.50 Z" fill="#1AC0F7"
                          fill-rule="evenodd" filter="url(#filter-11)" group-id="1,2,8,23" id="矩形" node-id="152"
                          stroke="none" target-height="29.5" target-width="52" target-x="718" target-y="578"/>
                </g>
                <g node-id="633">
                    <path d="M 681.00 593.70 L 707.00 608.50 L 707.00 707.30 L 681.00 692.50 Z" fill="#ededf7"
                          fill-rule="evenodd" filter="url(#filter-11)" group-id="1,2,8,24" id="矩形" node-id="154"
                          stroke="none" target-height="113.599976" target-width="26" target-x="681" target-y="593.7"/>
                    <g node-id="656">
                        <path d="M 733.00 593.70 L 707.00 608.50 L 707.00 707.30 L 733.00 692.50 Z" fill="#d5daf0"
                              fill-rule="evenodd" filter="url(#filter-11)" group-id="1,2,8,24,47" id="矩形备份-30"
                              node-id="155" stroke="none" target-height="113.599976" target-width="26" target-x="707"
                              target-y="593.7"/>
                    </g>
                    <path d="M 681.00 593.70 L 707.00 579.00 L 733.00 593.70 L 707.00 608.50 Z" fill="#f8f9fd"
                          fill-rule="evenodd" filter="url(#filter-11)" group-id="1,2,8,24" id="矩形" node-id="156"
                          stroke="none" target-height="29.5" target-width="52" target-x="681" target-y="579"/>
                </g>
                <g node-id="634">
                    <path d="M 642.00 674.70 L 668.00 689.50 L 668.00 728.30 L 642.00 713.50 Z" fill="#03c9c9"
                          fill-rule="evenodd" filter="url(#filter-11)" group-id="1,2,8,25" id="矩形" node-id="158"
                          stroke="none" target-height="53.599976" target-width="26" target-x="642" target-y="674.7"/>
                    <g node-id="657">
                        <path d="M 694.00 674.70 L 668.00 689.50 L 668.00 728.30 L 694.00 713.50 Z" fill="#03c9c9"
                              fill-rule="evenodd" filter="url(#filter-11)" group-id="1,2,8,25,48" id="矩形备份-30"
                              node-id="159" stroke="none" target-height="53.599976" target-width="26" target-x="668"
                              target-y="674.7"/>
                    </g>
                    <path d="M 642.00 674.70 L 668.00 660.00 L 694.00 674.70 L 668.00 689.50 Z" fill="#1AC0F7"
                          fill-rule="evenodd" filter="url(#filter-11)" group-id="1,2,8,25" id="矩形" node-id="160"
                          stroke="none" target-height="29.5" target-width="52" target-x="642" target-y="660"/>
                </g>
            </g>
            <g node-id="618">
                <path d="M 341.00 659.00 L 521.00 557.00 L 528.00 561.00 L 348.00 777.00 L 341.00 773.00 Z"
                      fill="#d5daf0" fill-rule="evenodd" filter="url(#filter-12)" group-id="1,2,9" id="矩形"
                      node-id="162" stroke="none" target-height="220" target-width="187" target-x="341" target-y="557"/>
                <path d="M 348.00 663.00 L 528.00 561.00 L 528.00 675.00 L 348.00 777.00 Z" fill="#f8f9fd"
                      fill-rule="evenodd" filter="url(#filter-12)" group-id="1,2,9" id="矩形" node-id="163"
                      stroke="none" target-height="216" target-width="180" target-x="348" target-y="561"/>
                <g node-id="635">
                    <path d="M 363.30 685.60 L 365.40 677.50 L 366.90 673.90 L 370.80 667.50 L 373.10 664.90 L 375.60 662.60 L 378.30 660.80 L 381.00 659.40 L 383.90 658.60 L 386.80 658.20 L 389.80 658.40 L 392.80 659.10 L 395.40 660.40 L 397.90 662.10 L 400.10 664.30 L 402.10 666.80 L 403.80 669.80 L 406.20 676.40 L 407.20 684.10 L 407.20 688.20 L 406.70 692.40 L 404.60 700.50 L 403.10 704.10 L 399.20 710.50 L 396.90 713.10 L 394.40 715.40 L 391.70 717.20 L 389.00 718.60 L 386.10 719.40 L 383.20 719.80 L 380.20 719.60 L 377.20 718.90 L 374.60 717.60 L 372.10 715.90 L 369.90 713.70 L 367.90 711.20 L 366.20 708.20 L 364.90 705.00 L 363.10 697.70 L 362.80 689.80 L 363.30 685.60 Z M 367.80 685.30 L 376.70 693.70 L 375.90 709.20 L 385.40 699.40 L 396.00 703.80 L 392.90 689.30 L 400.30 676.50 L 388.90 677.30 L 382.90 665.10 L 378.80 680.10 L 367.80 685.30 Z"
                          fill="#03c9c9" fill-rule="evenodd" filter="url(#filter-12)" group-id="1,2,9,26" id="形状结合"
                          node-id="164" stroke="none" target-height="61.599976" target-width="44.400024"
                          target-x="362.8" target-y="658.2"/>
                </g>
                <path d="M 473.00 677.90 L 473.00 689.90 L 424.00 717.50 L 424.00 705.50 L 473.00 677.90 Z"
                      fill="#d5daf0" fill-rule="evenodd" filter="url(#filter-12)" group-id="1,2,9" id="形状结合"
                      node-id="165" stroke="none" target-height="39.599976" target-width="49" target-x="424"
                      target-y="677.9"/>
                <path d="M 406.00 720.50 L 405.80 722.40 L 404.60 725.70 L 402.30 728.40 L 400.80 729.50 L 370.20 746.70 L 368.90 747.10 L 367.60 747.00 L 366.40 746.40 L 365.10 744.50 L 365.20 741.80 L 366.40 738.50 L 368.70 735.70 L 370.20 734.70 L 400.80 717.50 L 402.10 717.00 L 403.40 717.10 L 404.60 717.70 L 405.50 718.80 L 406.00 720.50 Z"
                      fill="#03c9c9" fill-rule="evenodd" filter="url(#filter-12)" group-id="1,2,9" id="路径"
                      node-id="166" stroke="none" target-height="30.099976" target-width="40.899994" target-x="365.1"
                      target-y="717"/>
                <path d="M 515.00 632.00 L 515.00 644.00 L 514.00 644.80 L 424.00 695.50 L 424.00 683.50 L 483.00 650.10 Z"
                      fill="#d5daf0" fill-rule="evenodd" filter="url(#filter-12)" group-id="1,2,9" id="路径"
                      node-id="167" stroke="none" target-height="63.5" target-width="91" target-x="424" target-y="632"/>
                <path d="M 515.00 610.00 L 515.00 622.00 L 514.00 622.80 L 424.00 673.50 L 424.00 661.50 L 483.00 628.10 Z"
                      fill="#03c9c9" fill-rule="evenodd" filter="url(#filter-12)" group-id="1,2,9" id="路径"
                      node-id="168" stroke="none" target-height="63.5" target-width="91" target-x="424" target-y="610"/>
                <path d="M 515.00 587.00 L 515.00 599.00 L 514.00 599.80 L 424.00 650.50 L 424.00 638.50 L 483.00 605.10 Z"
                      fill="#d5daf0" fill-rule="evenodd" filter="url(#filter-12)" group-id="1,2,9" id="路径"
                      node-id="169" stroke="none" target-height="63.5" target-width="91" target-x="424" target-y="587"/>
            </g>
            <g node-id="619">
                <g node-id="636">
                    <path d="M 1033.00 218.00 L 1033.00 308.00 L 1034.70 307.10 L 1036.00 307.00 L 1036.90 307.30 L 1037.60 308.20 L 1038.10 309.40 L 1038.30 313.00 L 1038.00 315.00 L 1037.20 317.00 L 1035.90 318.90 L 1032.40 321.80 L 1030.60 322.70 L 1029.00 323.00 L 1027.70 322.80 L 1026.80 322.10 L 1026.20 320.90 L 1026.00 319.00"
                          fill="none" group-id="1,2,10,27" id="路径-6" node-id="172" stroke="#777b8e"
                          stroke-linecap="round" stroke-width="2" target-height="105" target-width="12.300049"
                          target-x="1026" target-y="218"/>
                    <g node-id="658">
                        <path d="M 994.70 369.40 L 1062.50 330.90 L 1064.30 330.20 L 1066.10 330.00 L 1067.90 330.30 L 1078.00 336.00 L 1074.60 336.10 L 1073.30 336.50 L 1073.00 337.00 L 1073.00 413.60 L 1072.40 419.00 L 1070.50 424.00 L 1067.60 428.40 L 1063.70 432.10 L 996.00 477.00 L 986.50 472.00 L 985.00 470.90 L 983.90 469.40 L 983.20 467.80 L 983.00 466.00 L 983.20 386.60 L 984.40 381.40 L 986.80 376.70 L 990.30 372.60 L 994.70 369.40 Z"
                              fill="#1AC0F7" fill-rule="evenodd" group-id="1,2,10,27,49" id="矩形" node-id="174"
                              stroke="none" target-height="147" target-width="95" target-x="983" target-y="330"/>
                        <path d="M 1003.70 374.40 L 1071.50 335.90 L 1073.30 335.20 L 1075.10 335.00 L 1076.90 335.30 L 1078.50 336.00 L 1079.90 337.10 L 1081.10 338.60 L 1081.80 340.20 L 1082.00 342.00 L 1081.80 421.40 L 1081.40 424.00 L 1079.50 429.00 L 1076.60 433.40 L 1072.70 437.10 L 1002.50 477.10 L 1000.70 477.80 L 998.90 478.00 L 997.10 477.70 L 995.50 477.00 L 994.10 475.90 L 992.90 474.40 L 992.20 472.80 L 992.00 471.00 L 992.20 391.60 L 993.40 386.40 L 995.80 381.70 L 999.30 377.60 L 1003.70 374.40 Z"
                              fill="#03c9c9" fill-rule="evenodd" group-id="1,2,10,27,49" id="矩形" node-id="175"
                              stroke="none" target-height="143" target-width="90" target-x="992" target-y="335"/>
                        <path d="M 1026.00 390.00 L 1045.00 420.00 L 1052.00 401.00 L 1070.00 425.00 L 1004.00 464.00 L 1026.00 390.00 Z M 1061.00 362.00 L 1063.40 362.30 L 1065.50 363.20 L 1067.40 364.60 L 1068.80 366.40 L 1069.70 368.50 L 1070.00 370.80 L 1069.30 377.30 L 1067.10 382.90 L 1063.70 388.00 L 1059.20 392.10 L 1056.50 393.80 L 1054.30 394.70 L 1052.00 395.00 L 1049.60 394.70 L 1047.50 393.80 L 1045.60 392.40 L 1044.20 390.60 L 1043.30 388.50 L 1043.00 386.20 L 1043.20 382.80 L 1043.70 379.70 L 1045.90 374.10 L 1049.30 369.00 L 1051.40 366.80 L 1056.50 363.20 L 1058.70 362.30 L 1061.00 362.00 Z"
                              fill="#f8f9fd" fill-rule="evenodd" group-id="1,2,10,27,49" id="形状结合" node-id="176"
                              stroke="none" target-height="102" target-width="66" target-x="1004" target-y="362"/>
                    </g>
                    <path d="M 990.00 381.00 L 1031.00 322.00 L 1074.00 333.00" fill="none" group-id="1,2,10,27"
                          id="路径-7" node-id="177" stroke="#777b8e" stroke-linecap="round" stroke-width="1"
                          target-height="59" target-width="84" target-x="990" target-y="322"/>
                </g>
                <g node-id="637">
                    <g node-id="659">
                        <g node-id="670">
                            <path d="M 1173.50 489.50 L 1087.00 440.20 L 1087.00 429.40 L 1133.20 405.50 L 1213.80 405.50 L 1260.00 429.40 L 1260.00 440.20 L 1173.50 489.50 Z"
                                  fill="#000000" fill-rule="evenodd" filter="url(#filter-14)" group-id="1,2,10,28,50,61"
                                  node-id="545" stroke="none" target-height="84" target-width="173" target-x="1087"
                                  target-y="405.5"/>
                        </g>
                        <path d="M 1173.50 489.50 L 1087.00 440.20 L 1087.00 429.40 L 1133.20 405.50 L 1213.80 405.50 L 1260.00 429.40 L 1260.00 440.20 L 1173.50 489.50 Z"
                              fill="#d5daf0" fill-rule="evenodd" group-id="1,2,10,28,50,62" node-id="550" stroke="none"
                              target-height="84" target-width="173" target-x="1087" target-y="405.5"/>
                    </g>
                    <path d="M 1086.00 429.00 L 1172.50 379.50 L 1259.00 429.00 L 1172.50 478.50 Z" fill="#f8f9fd"
                          fill-rule="evenodd" group-id="1,2,10,28" id="矩形" node-id="182" stroke="none"
                          target-height="99" target-width="173" target-x="1086" target-y="379.5"/>
                    <path d="M 1173.00 463.30 L 1115.00 430.30 L 1115.00 404.30 L 1146.00 388.30 L 1200.00 388.30 L 1231.00 404.30 L 1231.00 430.30 L 1173.00 463.30 Z"
                          fill="#d5daf0" fill-rule="evenodd" group-id="1,2,10,28" id="形状结合" node-id="183"
                          stroke="none" target-height="75" target-width="116" target-x="1115" target-y="388.3"/>
                    <path d="M 1115.00 404.00 L 1173.00 371.00 L 1231.00 404.00 L 1173.00 437.00 Z" fill="#f8f9fd"
                          fill-rule="evenodd" group-id="1,2,10,28" id="矩形" node-id="184" stroke="none"
                          target-height="66" target-width="116" target-x="1115" target-y="371"/>
                </g>
                <g node-id="638">
                    <path d="M 1200.00 384.90 L 1174.50 370.20 L 1174.30 387.40 L 1169.10 384.40 L 1169.30 368.30 L 1144.60 382.90 L 1139.40 379.90 L 1169.10 362.40 L 1169.40 362.60 L 1169.70 339.10 L 1145.40 353.40 L 1140.20 350.40 L 1169.80 333.00 L 1170.10 308.90 L 1145.50 323.40 L 1140.30 320.40 L 1170.20 303.00 L 1170.50 279.70 L 1146.30 293.90 L 1141.10 290.90 L 1170.50 273.60 L 1170.90 249.40 L 1146.30 263.80 L 1141.10 260.80 L 1170.90 243.40 L 1171.20 219.20 L 1146.40 233.80 L 1141.20 230.80 L 1170.90 213.30 L 1171.30 213.60 L 1171.60 188.90 L 1146.40 203.80 L 1141.20 200.80 L 1170.90 183.30 L 1171.70 183.80 L 1172.00 160.30 L 1146.70 175.20 L 1141.50 172.20 L 1171.30 154.70 L 1172.10 155.10 L 1172.60 116.40 L 1175.50 115.10 L 1177.70 117.40 L 1177.20 157.00 L 1204.70 172.80 L 1202.20 177.10 L 1177.20 162.70 L 1176.90 185.60 L 1204.30 201.50 L 1201.80 205.80 L 1176.80 191.40 L 1176.50 215.40 L 1204.30 231.50 L 1201.80 235.80 L 1176.40 221.20 L 1176.10 245.20 L 1204.30 261.50 L 1201.80 265.80 L 1176.10 251.00 L 1175.70 275.00 L 1204.30 291.50 L 1201.80 295.80 L 1175.70 280.80 L 1175.40 304.80 L 1203.40 321.00 L 1200.90 325.40 L 1175.30 310.60 L 1175.00 334.60 L 1203.40 351.00 L 1200.90 355.40 L 1174.90 340.40 L 1174.60 364.50 L 1202.50 380.60 L 1200.00 384.90 Z"
                          fill="#d5daf0" fill-rule="evenodd" group-id="1,2,10,29" id="形状结合备份-3" node-id="186"
                          stroke="none" target-height="272.3" target-width="65.29993" target-x="1139.4"
                          target-y="115.1"/>
                    <path d="M 1203.90 402.40 L 1198.90 405.40 L 1199.20 383.90 L 1174.50 398.50 L 1174.20 419.00 L 1171.90 420.40 L 1169.00 419.00 L 1169.30 398.60 L 1144.90 384.60 L 1144.70 405.20 L 1139.50 402.20 L 1142.00 202.80 L 1141.60 202.60 L 1142.00 201.80 L 1142.40 174.10 L 1142.00 173.90 L 1142.40 173.10 L 1142.90 135.30 L 1148.10 132.30 L 1147.60 171.40 L 1172.00 185.50 L 1172.50 151.10 L 1177.60 154.10 L 1177.30 184.30 L 1200.40 170.70 L 1201.70 171.50 L 1202.20 133.60 L 1207.40 136.60 L 1203.90 402.40 Z M 1171.60 214.10 L 1172.00 189.90 L 1171.40 190.90 L 1147.50 177.10 L 1147.20 200.00 L 1171.60 214.10 Z M 1171.30 243.90 L 1171.60 218.60 L 1171.00 219.60 L 1147.20 205.80 L 1146.90 229.80 L 1171.30 243.90 Z M 1170.90 273.70 L 1171.20 249.30 L 1171.00 249.60 L 1146.80 235.60 L 1146.50 259.60 L 1170.90 273.70 Z M 1201.40 200.10 L 1201.70 176.00 L 1177.20 190.40 L 1176.90 212.90 L 1200.00 199.30 L 1201.40 200.10 Z M 1170.50 303.50 L 1170.80 279.50 L 1146.40 265.40 L 1146.10 289.50 L 1170.50 303.50 Z M 1201.00 229.90 L 1201.30 204.60 L 1176.80 219.00 L 1176.50 243.20 L 1200.00 229.40 L 1201.00 229.90 Z M 1170.10 333.30 L 1170.40 309.30 L 1146.00 295.20 L 1145.70 319.30 L 1170.10 333.30 Z M 1200.70 259.80 L 1201.00 234.90 L 1176.40 249.30 L 1176.10 273.40 L 1200.00 259.40 L 1200.70 259.80 Z M 1169.70 363.10 L 1170.00 339.10 L 1145.70 325.00 L 1145.40 349.10 L 1169.70 363.10 Z M 1200.30 289.60 L 1200.60 265.10 L 1176.00 279.50 L 1175.70 303.70 L 1200.00 289.40 L 1200.30 289.60 Z M 1169.40 392.90 L 1169.70 368.90 L 1145.30 354.80 L 1145.00 378.90 L 1169.40 392.90 Z M 1199.90 319.40 L 1200.20 295.30 L 1175.60 309.80 L 1175.30 332.90 L 1199.10 318.90 L 1199.90 319.40 Z M 1199.60 349.20 L 1199.90 324.50 L 1175.30 339.00 L 1174.90 363.10 L 1199.10 348.90 L 1199.60 349.20 Z M 1199.20 379.00 L 1199.50 354.70 L 1174.90 369.20 L 1174.60 392.40 L 1198.20 378.40 L 1199.20 379.00 Z"
                          fill="#ededf7" fill-rule="evenodd" group-id="1,2,10,29" id="形状结合备份-4" node-id="187"
                          stroke="none" target-height="288.09998" target-width="67.900024" target-x="1139.5"
                          target-y="132.3"/>
                </g>
                <g node-id="639">
                    <path d="M 1274.00 50.00 L 1318.00 25.00 L 1318.00 118.00 L 1274.00 143.00 Z" fill="#d5daf0"
                          fill-rule="evenodd" group-id="1,2,10,30" id="矩形" node-id="189" stroke="none"
                          target-height="118" target-width="44" target-x="1274" target-y="25"/>
                    <path d="M 1274.00 50.00 L 1230.00 25.00 L 1230.00 118.00 L 1274.00 143.00 Z" fill="#dee1f1"
                          fill-rule="evenodd" group-id="1,2,10,30" id="矩形" node-id="190" stroke="none"
                          target-height="118" target-width="44" target-x="1230" target-y="25"/>
                    <path d="M 1274.00 50.00 L 1230.00 25.00 L 1274.00 0.00 L 1318.00 25.00 Z" fill="#eff1f9"
                          fill-rule="evenodd" group-id="1,2,10,30" id="矩形" node-id="191" stroke="none"
                          target-height="50" target-width="88" target-x="1230" target-y="0"/>
                </g>
                <g node-id="640">
                    <path d="M 1154.00 161.00 L 1146.00 213.00 L 1113.00 205.00 L 1113.00 190.20 L 1118.00 182.00 L 1118.00 163.20 L 1136.00 158.00 Z"
                          fill="#1AC0F7" fill-rule="evenodd" group-id="1,2,10,31" id="路径" node-id="193" stroke="none"
                          target-height="55" target-width="41" target-x="1113" target-y="158"/>
                    <path d="M 1156.00 162.00 L 1148.00 214.00 L 1115.00 206.00 L 1115.00 191.20 L 1120.00 183.00 L 1120.00 164.20 L 1138.00 159.00 Z"
                          fill="#d5daf0" fill-rule="evenodd" group-id="1,2,10,31" id="路径" node-id="194" stroke="none"
                          target-height="55" target-width="41" target-x="1115" target-y="159"/>
                    <path d="M 1145.00 148.00 L 1173.00 164.00 L 1147.00 180.00 L 1118.00 163.20 Z" fill="#1AC0F7"
                          fill-rule="evenodd" group-id="1,2,10,31" id="路径" node-id="195" stroke="none"
                          target-height="32" target-width="55" target-x="1118" target-y="148"/>
                    <path d="M 1113.00 191.00 L 1141.00 207.00 L 1141.00 221.00 L 1113.00 205.00 Z" fill="#03c9c9"
                          fill-rule="evenodd" group-id="1,2,10,31" id="路径备份" node-id="196" stroke="none"
                          target-height="30" target-width="28" target-x="1113" target-y="191"/>
                    <path d="M 1173.00 164.00 L 1173.00 203.00 L 1141.00 221.00 L 1141.00 206.20 L 1146.00 198.00 L 1146.00 179.20 Z"
                          fill="#03c9c9" fill-rule="evenodd" group-id="1,2,10,31" id="路径" node-id="197" stroke="none"
                          target-height="57" target-width="32" target-x="1141" target-y="164"/>
                    <path d="M 1170.00 169.00 L 1170.00 184.70 L 1150.00 195.90 L 1150.00 179.90 L 1169.40 169.00 L 1170.00 169.00 Z"
                          fill="#d5daf0" fill-rule="evenodd" group-id="1,2,10,31" id="形状结合" node-id="198"
                          stroke="none" target-height="26.899994" target-width="20" target-x="1150" target-y="169"/>
                </g>
                <g node-id="641">
                    <path d="M 1225.00 57.00 L 1225.00 86.50 L 1240.00 78.00 L 1240.00 84.00 L 1226.10 91.90 L 1251.00 106.00 L 1251.00 112.00 L 1221.00 95.00 L 1221.00 94.80 L 1200.70 106.20 L 1225.00 120.00 L 1225.00 126.00 L 1195.40 109.20 L 1174.50 121.10 L 1199.00 135.00 L 1199.00 141.00 L 1169.20 124.10 L 1149.10 135.50 L 1173.00 149.00 L 1173.00 155.00 L 1143.80 138.50 L 1122.90 150.30 L 1147.00 164.00 L 1147.00 170.00 L 1117.60 153.30 L 1096.60 165.20 L 1121.00 179.00 L 1121.00 185.00 L 1091.30 168.20 L 1070.40 180.00 L 1095.00 194.00 L 1095.00 200.00 L 1065.10 183.00 L 1045.50 194.10 L 1070.00 208.00 L 1070.00 214.00 L 1040.20 197.10 L 1020.60 208.20 L 1045.00 222.00 L 1045.00 228.00 L 1015.30 211.20 L 993.90 223.30 L 1018.00 237.00 L 1018.00 243.00 L 988.60 226.30 L 969.00 237.40 L 993.00 251.00 L 993.00 257.00 L 963.70 240.40 L 942.80 252.30 L 967.00 266.00 L 967.00 272.00 L 937.50 255.30 L 916.00 267.40 L 940.00 281.00 L 940.00 287.00 L 910.70 270.40 L 885.00 285.00 L 885.00 279.00 L 909.00 265.40 L 909.00 232.00 L 914.00 232.00 L 914.00 262.60 L 936.00 250.10 L 936.00 217.00 L 941.00 217.00 L 941.00 247.30 L 962.00 235.40 L 962.00 202.00 L 967.00 202.00 L 967.00 232.60 L 987.00 221.20 L 987.00 188.00 L 992.00 188.00 L 992.00 218.40 L 1014.00 206.00 L 1014.00 173.00 L 1019.00 173.00 L 1019.00 203.10 L 1039.00 191.80 L 1039.00 159.00 L 1044.00 159.00 L 1044.00 189.00 L 1064.00 177.70 L 1064.00 145.00 L 1069.00 145.00 L 1069.00 174.80 L 1090.00 162.90 L 1090.00 130.00 L 1095.00 130.00 L 1095.00 160.10 L 1116.00 148.20 L 1116.00 115.00 L 1121.00 115.00 L 1121.00 145.40 L 1142.00 133.50 L 1142.00 100.00 L 1147.00 100.00 L 1147.00 130.70 L 1168.00 118.80 L 1168.00 86.00 L 1173.00 86.00 L 1173.00 115.90 L 1194.00 104.00 L 1194.00 71.00 L 1199.00 71.00 L 1199.00 101.20 L 1220.00 89.30 L 1220.00 57.00 L 1225.00 57.00 Z"
                          fill="#d5daf0" fill-rule="evenodd" group-id="1,2,10,32" id="形状结合" node-id="200"
                          stroke="none" target-height="230" target-width="366" target-x="885" target-y="57"/>
                    <path d="M 1234.60 46.70 L 1239.80 49.70 L 1224.30 58.50 L 1249.00 72.50 L 1264.30 63.80 L 1269.50 66.90 L 1251.60 77.00 L 1252.00 77.00 L 1252.00 105.20 L 1270.00 95.00 L 1270.00 101.00 L 917.00 301.00 L 915.00 302.00 L 885.00 285.00 L 885.00 278.00 L 909.00 231.00 L 1234.60 46.70 Z M 910.60 237.90 L 888.50 281.00 L 915.00 296.00 L 915.00 295.00 L 936.00 253.90 L 936.00 252.30 L 910.60 237.90 Z M 936.00 263.80 L 921.40 292.40 L 936.00 284.10 L 936.00 263.80 Z M 963.00 240.40 L 941.00 252.90 L 941.00 281.30 L 963.00 268.80 L 963.00 240.40 Z M 989.00 225.70 L 968.00 237.60 L 968.00 266.00 L 989.00 254.10 L 989.00 225.70 Z M 1014.00 211.50 L 994.00 222.90 L 994.00 251.30 L 1014.00 239.90 L 1014.00 211.50 Z M 936.00 221.70 L 914.30 234.00 L 939.00 248.00 L 960.50 235.90 L 936.00 222.00 L 936.00 221.70 Z M 1041.00 196.20 L 1019.00 208.70 L 1019.00 237.10 L 1041.00 224.70 L 1041.00 196.20 Z M 962.00 207.00 L 941.00 218.90 L 965.70 232.90 L 986.70 221.00 L 962.00 207.00 Z M 1066.00 182.10 L 1046.00 193.40 L 1046.00 221.80 L 1066.00 210.50 L 1066.00 182.10 Z M 987.00 192.80 L 967.30 204.00 L 992.00 218.00 L 1011.60 206.90 L 987.00 192.80 Z M 1091.00 167.90 L 1071.00 179.30 L 1071.00 207.70 L 1091.00 196.30 L 1091.00 167.90 Z M 1014.00 177.50 L 992.20 189.90 L 1016.90 203.90 L 1038.30 191.80 L 1014.00 178.00 L 1014.00 177.50 Z M 1117.00 153.20 L 1096.00 165.10 L 1096.00 193.50 L 1117.00 181.60 L 1117.00 153.20 Z M 1039.00 163.40 L 1018.90 174.80 L 1043.60 188.80 L 1063.20 177.70 L 1039.00 164.00 L 1039.00 163.40 Z M 1143.00 138.50 L 1122.00 150.40 L 1122.00 178.80 L 1143.00 166.90 L 1143.00 138.50 Z M 1064.00 149.20 L 1043.80 160.70 L 1068.50 174.70 L 1088.00 163.60 L 1064.00 150.00 L 1064.00 149.20 Z M 1169.00 123.80 L 1148.00 135.70 L 1148.00 164.10 L 1169.00 152.20 L 1169.00 123.80 Z M 1090.00 134.50 L 1068.60 146.60 L 1093.30 160.60 L 1114.30 148.80 L 1090.00 135.00 L 1090.00 134.50 Z M 1195.00 109.10 L 1174.00 120.90 L 1174.00 149.40 L 1195.00 137.50 L 1195.00 109.10 Z M 1116.00 119.80 L 1094.90 131.80 L 1119.60 145.80 L 1140.50 133.90 L 1116.00 119.80 Z M 1221.00 94.30 L 1200.00 106.20 L 1200.00 134.60 L 1221.00 122.70 L 1221.00 94.30 Z M 1142.10 105.00 L 1121.10 116.90 L 1145.80 130.90 L 1166.80 119.00 L 1142.10 105.00 Z M 1247.00 79.60 L 1226.00 91.50 L 1226.00 119.90 L 1247.00 108.00 L 1247.00 79.60 Z M 1168.00 90.40 L 1147.40 102.00 L 1172.00 116.10 L 1192.10 104.70 L 1168.00 91.00 L 1168.00 90.40 Z M 1194.00 75.60 L 1172.70 87.70 L 1197.40 101.70 L 1218.40 89.80 L 1194.00 76.00 L 1194.00 75.60 Z M 1220.00 60.90 L 1199.00 72.80 L 1223.70 86.80 L 1243.70 75.50 L 1220.00 62.00 L 1220.00 60.90 Z"
                          fill="#ededf7" fill-rule="evenodd" group-id="1,2,10,32" id="形状" node-id="201" stroke="none"
                          target-height="255.3" target-width="385" target-x="885" target-y="46.7"/>
                </g>
            </g>
            <g node-id="620">
                <g node-id="642">
                    <path d="M 668.00 784.00 L 667.70 784.90 L 666.70 785.90 L 664.50 787.00 L 660.80 788.20 L 655.40 789.20 L 649.50 789.80 L 642.50 790.00 L 635.50 789.80 L 629.60 789.20 L 624.20 788.20 L 620.50 787.00 L 618.30 785.90 L 617.30 784.90 L 617.00 784.00 L 617.30 783.10 L 618.30 782.10 L 620.50 781.00 L 624.20 779.80 L 629.60 778.80 L 635.50 778.20 L 642.50 778.00 L 649.50 778.20 L 655.40 778.80 L 660.80 779.80 L 664.50 781.00 L 666.70 782.10 L 667.70 783.10 L 668.00 784.00 Z"
                          fill="#000000" fill-opacity="0.100438" fill-rule="evenodd" group-id="1,2,11,33" id="椭圆形"
                          node-id="204" stroke="none" target-height="12" target-width="51" target-x="617"
                          target-y="778"/>
                    <g node-id="660">
                        <path d="M 658.80 686.10 L 661.90 696.40 L 662.70 706.60 L 662.80 726.30 L 660.60 739.80 L 660.80 746.60 L 659.60 750.60 L 648.20 749.70 L 647.00 746.70 L 647.00 742.90 L 645.90 739.30 L 643.90 724.30 L 641.80 717.80 L 640.00 729.80 L 638.20 738.00 L 639.30 746.70 L 637.50 751.90 L 633.50 757.20 L 625.50 748.00 L 624.60 743.30 L 625.10 737.30 L 622.30 726.40 L 620.50 713.50 L 619.00 696.00 L 622.20 685.10 L 628.20 679.90 Z"
                              fill="#473f5c" fill-rule="evenodd" group-id="1,2,11,33,51" id="路径-26" node-id="205"
                              stroke="none" target-height="77.29999" target-width="43.799988" target-x="619"
                              target-y="679.9"/>
                    </g>
                    <path d="M 639.30 746.70 L 639.40 758.00 L 638.00 776.10 L 639.00 780.40 L 639.50 785.40 L 639.00 788.10 L 628.90 788.10 L 627.60 787.70 L 624.30 783.80 L 624.30 781.00 L 626.50 779.40 L 628.20 776.30 L 624.60 754.70 L 624.80 746.70 L 626.50 748.90 L 629.80 751.10 L 634.20 751.10 L 638.50 748.90 Z"
                          fill="#231e31" fill-rule="evenodd" group-id="1,2,11,33" id="路径-7备份-3" node-id="206"
                          stroke="none" target-height="41.399963" target-width="15.200012" target-x="624.3"
                          target-y="746.7"/>
                    <g node-id="661">
                        <path d="M 647.10 746.70 L 647.20 758.00 L 648.40 776.10 L 647.40 780.40 L 646.90 785.40 L 647.90 788.10 L 657.00 788.10 L 658.60 787.10 L 659.20 785.90 L 661.40 784.90 L 663.60 783.30 L 663.60 780.50 L 660.30 778.30 L 658.10 775.00 L 661.90 754.70 L 661.60 746.70 L 660.30 748.90 L 657.00 750.00 L 652.70 750.00 L 649.40 748.90 Z"
                              fill="#231e31" fill-rule="evenodd" group-id="1,2,11,33,52" id="路径-7备份-4" node-id="207"
                              stroke="none" target-height="41.399963" target-width="16.699951" target-x="646.9"
                              target-y="746.7"/>
                    </g>
                    <path d="M 641.80 717.80 L 640.20 711.90 L 638.50 707.60 L 638.50 702.60" fill="none"
                          group-id="1,2,11,33" id="路径-27" node-id="208" stroke="#736b88" stroke-linecap="butt"
                          stroke-width="0.545" target-height="15.200012" target-width="3.2999878" target-x="638.5"
                          target-y="702.6"/>
                </g>
                <g node-id="643">
                    <path d="M 618.80 685.00 L 619.90 685.70 L 621.60 688.20 L 626.80 684.00 L 623.90 680.90 L 619.50 679.70 Z"
                          fill="#ffc59d" fill-rule="evenodd" group-id="1,2,11,34" id="路径-30" node-id="210"
                          stroke="none" target-height="8.5" target-width="8" target-x="618.8" target-y="679.7"/>
                    <g node-id="662">
                        <path d="M 652.00 626.30 L 648.40 625.30 L 645.60 623.20 L 644.40 620.30 L 643.40 619.60 L 643.40 618.80 L 644.70 618.60 L 646.10 619.10 L 645.70 618.20 L 645.00 617.40 L 642.60 618.00 L 641.20 617.70 L 641.20 616.70 L 644.40 615.70 L 644.80 614.80 L 646.10 614.50 L 648.00 615.70 L 650.90 616.00 L 652.00 616.50 L 655.10 621.80 L 657.70 624.20 L 653.40 627.40 Z"
                              fill="#ffc59d" fill-rule="evenodd" group-id="1,2,11,34,53" id="路径-31" node-id="212"
                              stroke="none" target-height="12.900024" target-width="16.5" target-x="641.2"
                              target-y="614.5"/>
                        <path d="M 644.40 615.70 L 646.10 615.40 L 648.10 617.40" fill="none" group-id="1,2,11,34,53"
                              id="路径-32" node-id="213" stroke="#f1a774" stroke-linecap="round" stroke-width="0.545"
                              target-height="2" target-width="3.6999512" target-x="644.4" target-y="615.4"/>
                        <path d="M 645.70 619.00 L 646.40 619.50 L 647.10 620.50 L 647.60 622.00" fill="none"
                              group-id="1,2,11,34,53" id="路径-33" node-id="214" stroke="#f1a774" stroke-linecap="round"
                              stroke-width="0.545" target-height="3" target-width="1.8999634" target-x="645.7"
                              target-y="619"/>
                    </g>
                    <g node-id="663">
                        <g node-id="672">
                            <path d="M 624.30 636.60 L 625.10 634.30 L 629.70 632.20 L 638.10 631.40 L 641.00 633.50 L 641.90 635.30 L 651.60 635.50 L 654.90 636.60 L 661.20 635.80 L 654.40 628.60 L 651.80 625.40 L 653.10 622.70 L 656.90 619.90 L 662.20 623.50 L 668.00 626.80 L 674.90 632.10 L 677.10 637.70 L 676.30 640.80 L 671.70 647.30 L 660.20 654.90 L 656.80 677.80 L 661.00 690.20 L 653.00 696.40 L 624.70 698.30 L 619.50 693.10 L 621.20 687.00 L 624.30 680.10 L 616.20 666.80 L 612.40 671.70 L 613.40 673.90 L 619.90 679.20 L 620.20 682.80 L 618.90 685.80 L 615.60 685.70 L 601.70 679.20 L 596.70 674.20 L 596.00 668.90 L 605.10 651.20 L 607.40 644.60 L 614.50 639.40 Z"
                                  fill="#ff935f" fill-rule="evenodd" group-id="1,2,11,34,54,63" node-id="603"
                                  stroke="none" target-height="78.39996" target-width="81.099976" target-x="596"
                                  target-y="619.9"/>
                        </g>
                        <path d="M 663.80 634.40 L 668.90 636.70 L 670.30 645.20 L 655.40 665.90 L 650.30 668.80 L 627.60 673.00 L 623.20 671.90 L 621.60 672.80 L 613.30 665.40 L 611.50 664.20 L 603.80 662.90 L 599.20 660.10 L 600.50 657.70 L 605.40 660.90 L 615.70 662.90 L 623.30 669.40 L 627.00 670.60 L 650.30 666.40 L 655.40 663.60 L 667.80 643.80 L 667.00 638.20 L 660.60 635.00 Z"
                              fill="#e5ffa5" fill-rule="evenodd" group-id="1,2,11,34,54,64" node-id="608" stroke="none"
                              target-height="38.599976" target-width="71.099976" target-x="599.2" target-y="634.4"/>
                    </g>
                    <path d="M 661.20 635.80 L 654.40 628.60 L 651.80 625.40 L 653.10 622.70 L 656.90 619.90 L 662.20 623.50 L 668.00 626.80 L 674.90 632.10 L 677.10 637.70 L 676.30 640.80 L 671.70 647.30 L 660.20 654.90 L 657.90 677.80 L 659.40 685.80 L 661.00 690.20 L 653.10 697.20 L 624.70 698.30 L 619.50 693.10 L 621.20 687.00 L 624.30 680.10 L 616.20 666.80 L 612.40 671.70 L 613.40 673.90 L 619.90 679.20 L 620.20 682.80 L 618.90 685.80 L 615.60 685.70 L 601.70 679.20 L 596.70 674.20 L 596.00 668.90 L 599.60 661.80 L 603.00 663.80 L 609.30 665.20 L 616.20 658.60 L 621.20 665.20 L 625.10 673.90 L 628.50 674.50 L 649.90 670.50 L 653.50 668.50 L 655.70 647.10 L 665.20 644.60 L 670.90 641.10 L 670.30 635.80 L 666.50 634.20 Z"
                          fill="#473f5c" fill-rule="evenodd" group-id="1,2,11,34" id="路径-25" node-id="220"
                          stroke="none" target-height="78.39996" target-width="81.099976" target-x="596"
                          target-y="619.9"/>
                    <path d="M 619.90 679.70 L 623.50 679.50 L 625.90 678.80 L 628.90 678.80 L 628.60 680.10 L 626.60 680.60 L 624.40 682.10 L 623.00 683.50 L 620.80 684.00 L 620.00 680.90 Z"
                          fill="#ffc59d" fill-rule="evenodd" group-id="1,2,11,34" id="路径-29" node-id="221"
                          stroke="none" target-height="5.200012" target-width="9" target-x="619.9" target-y="678.8"/>
                    <path d="M 661.00 690.20 L 653.10 697.20 L 638.50 699.80 L 624.70 698.30 L 619.50 693.10"
                          fill="none" group-id="1,2,11,34" id="路径" node-id="222" stroke="#736b88"
                          stroke-linecap="butt" stroke-width="0.545" target-height="9.599976" target-width="41.5"
                          target-x="619.5" target-y="690.2"/>
                </g>
                <g node-id="644">
                    <path d="M 625.10 618.90 L 625.10 622.50 L 624.60 622.20 L 624.30 622.50 L 624.40 623.80 L 625.30 627.10 L 626.70 628.60 L 627.30 630.50 L 627.30 634.80 L 633.80 634.00 L 637.50 633.90 L 639.50 634.10 L 640.30 634.60 L 640.30 632.90 L 641.40 631.60 L 642.50 629.10 L 643.80 622.70 L 643.80 621.90 L 643.40 621.40 L 643.80 618.10 L 643.50 617.00 L 642.40 615.70 L 640.10 614.00 L 636.00 611.90 L 631.00 613.80 L 627.90 615.40 L 626.20 616.70 L 625.30 617.90 L 625.10 618.90 Z"
                          fill="#ffc59d" fill-rule="evenodd" group-id="1,2,11,35" id="路径-23" node-id="224"
                          stroke="none" target-height="22.899963" target-width="19.5" target-x="624.3"
                          target-y="611.9"/>
                    <path d="M 626.70 626.50 L 626.60 628.50 L 627.30 630.50 L 627.30 634.80 L 634.80 634.00 L 640.30 634.60 L 640.30 632.90 L 641.80 630.90 L 641.60 630.30 L 641.80 627.10 L 639.80 631.90 L 639.10 632.70 L 638.50 632.90 L 633.90 632.40 L 629.70 633.50 L 628.40 631.70 L 626.70 626.50 Z"
                          fill="#f1a774" fill-rule="evenodd" group-id="1,2,11,35" id="路径-23" node-id="225"
                          stroke="none" target-height="8.299988" target-width="15.200012" target-x="626.6"
                          target-y="626.5"/>
                    <path d="M 643.30 620.10 L 640.50 623.30 L 639.00 627.70 L 638.00 629.60 L 632.70 630.80 L 630.10 630.40 L 628.90 629.80 L 628.40 629.00 L 625.30 622.30 L 625.10 619.40 L 627.80 613.30 L 635.80 611.90 L 643.30 618.10 L 643.30 620.10 Z"
                          fill="#53443f" fill-rule="evenodd" group-id="1,2,11,35" id="路径-24" node-id="226"
                          stroke="none" target-height="18.899963" target-width="18.200012" target-x="625.1"
                          target-y="611.9"/>
                    <path d="M 634.10 605.10 L 636.70 605.50 L 638.90 606.30 L 640.90 607.70 L 642.50 609.50 L 643.80 611.70 L 644.60 614.30 L 645.90 616.10 L 646.40 617.50 L 645.80 620.70 L 644.20 623.50 L 642.80 624.70 L 640.60 625.80 L 638.00 626.50 L 634.10 626.80 L 630.30 626.60 L 627.80 626.10 L 625.70 625.20 L 623.40 623.20 L 622.00 620.00 L 624.00 612.20 L 626.00 608.90 L 628.80 606.60 L 630.50 605.80 L 634.10 605.10 Z"
                          fill="#ff7e27" fill-rule="evenodd" group-id="1,2,11,35" id="形状结合" node-id="227"
                          stroke="none" target-height="21.700012" target-width="24.400024" target-x="622"
                          target-y="605.1"/>
                    <path d="M 624.30 636.60 L 625.10 634.30 L 629.70 632.20 L 638.10 631.40 L 641.00 633.50 L 642.90 635.50 L 638.50 635.50 L 626.60 636.40 Z"
                          fill="#473f5c" fill-rule="evenodd" group-id="1,2,11,35" id="蒙版" node-id="228" stroke="none"
                          target-height="5.199951" target-width="18.600037" target-x="624.3" target-y="631.4"/>
                </g>
            </g>
        </g>
    </g>
</svg>